<?xml version="1.0" encoding="utf-8"?>
<!-- Generator: Adobe Illustrator 23.1.0, SVG Export Plug-In . SVG Version: 6.00 Build 0)  -->
<svg version="1.1" id="Layer_1" xmlns="http://www.w3.org/2000/svg" xmlns:xlink="http://www.w3.org/1999/xlink" x="0px" y="0px"
	 viewBox="0 0 500 500" style="enable-background:new 0 0 500 500;" xml:space="preserve">
<style type="text/css">
	.st0{fill:#FFFF00;}
</style>
<g>
	<path class="st0" d="M369.7,111c-99.6,0-129.5,59.8-139.5,119.6c-10,59.8-19.9,99.6-59.8,99.6s-19.9-129.5-59.8-129.5
		S50.9,310.3,90.7,330.2c0,0,11.9,9,34.7,19.9c-6.2-7.2-13.6-18.7-17-35.1c-6.4-30.5,0.1-55.9,9.3-52c8.4,3.6,3.1,19.3,6.2,43.2
		c2.3,17.7,7.3,38.2,9.8,47.7c32.6,14.7,83.2,31.5,149.1,35.2c-16.2-36.1-27.2-86.6-8.6-146c14.7-46.8,47-21.3,41.1,14.7
		c-7.2,44-5,94.1-1.3,131.9C449.8,384.4,468.4,111,369.7,111z"/>
</g>
</svg>
