<svg id="Layer_1" data-name="Layer 1" xmlns="http://www.w3.org/2000/svg" viewBox="0 0 199.6 163"><defs><style>.cls-1{fill:#923c25;}.cls-2{fill:#913a25;}.cls-3{fill:#d15f44;}</style></defs><polygon class="cls-1" points="99.8 23.1 71.9 51 127.7 51 99.8 23.1"/><path class="cls-2" d="M99.8,173a81.1,81.1,0,0,0,80.6-71.9H19.2A81.1,81.1,0,0,0,99.8,173Z" transform="translate(0 -29.2)"/><path class="cls-3" d="M181.4,82H156.6l-50-50a9.4,9.4,0,0,0-6.8-2.8A9.6,9.6,0,0,0,93,32L43,82H18.3A18.5,18.5,0,0,0,4.7,88,18.7,18.7,0,0,0,.1,102.3a100.2,100.2,0,0,0,199.4,0A18.2,18.2,0,0,0,181.4,82ZM99.8,52.3l27.9,27.9H71.9Zm0,120.7a81.1,81.1,0,0,1-80.6-71.9H180.4A81.1,81.1,0,0,1,99.8,173Z" transform="translate(0 -29.2)"/></svg>