<svg id="Layer_1" data-name="Layer 1" xmlns="http://www.w3.org/2000/svg" viewBox="0 0 197.4 197.4"><defs><style>.cls-1{fill:#913a25;}.cls-2{fill:#d15f44;}</style></defs><circle class="cls-1" cx="98.7" cy="98.7" r="90.6"/><path class="cls-2" d="M100,1.3A98.8,98.8,0,0,0,4.4,75.5c-.1.2-.1.5-.2.7A98.7,98.7,0,1,0,100,1.3Zm71.3,140.2H92.1a8.1,8.1,0,1,0,0,16.1H159A82.5,82.5,0,0,1,17.5,100a83.3,83.3,0,0,1,1.2-14.2H53.9a3.9,3.9,0,0,1,3.4,1.8,4.1,4.1,0,0,1,.5,3.8l-.6,1.5a20,20,0,0,0,2.1,18.8,20.3,20.3,0,0,0,16.8,8.9h30.6a8.1,8.1,0,0,0,0-16.2H76.1a4.1,4.1,0,0,1-3.8-5.6l.5-1.4a20.2,20.2,0,0,0-2.1-18.9,20.5,20.5,0,0,0-16.8-8.9H23.3A82.5,82.5,0,0,1,165.7,50.1H117.8a8.1,8.1,0,1,0,0,16.2h57.5a82.5,82.5,0,0,1-4,75.2Z" transform="translate(-1.3 -1.3)"/><path class="cls-2" d="M143.8,106.8a8.1,8.1,0,0,0-11.5,0,8.2,8.2,0,0,0,0,11.4,8.1,8.1,0,0,0,11.5,0,8.2,8.2,0,0,0,0-11.4Z" transform="translate(-1.3 -1.3)"/></svg>