<svg id="Capa_1" data-name="Capa 1" xmlns="http://www.w3.org/2000/svg" viewBox="0 0 512 512"><defs><style>.cls-1{fill:#2d3440;}.cls-2{fill:#fff;}</style></defs><path class="cls-1" d="M329.9,10h-108a20.1,20.1,0,0,0-20,20V94a20.1,20.1,0,0,0,20,20h108a20,20,0,0,0,20-20V30A20,20,0,0,0,329.9,10Z" transform="translate(0)"/><circle class="cls-1" cx="74" cy="438" r="24"/><circle class="cls-1" cx="256" cy="438" r="24" transform="translate(-217.4 620.5) rotate(-80.8)"/><circle class="cls-1" cx="438" cy="438" r="24"/><rect class="cls-1" x="64" y="256" width="384" height="117.96"/><path class="cls-2" d="M256,472a34,34,0,1,0-34-34A34.1,34.1,0,0,0,256,472Zm0-48a14,14,0,1,1-14,14A14,14,0,0,1,256,424Z" transform="translate(0)"/><path class="cls-2" d="M74,472a34,34,0,1,0-34-34A34.1,34.1,0,0,0,74,472Zm0-48a14,14,0,1,1-14,14A14,14,0,0,1,74,424Z" transform="translate(0)"/><path class="cls-2" d="M404,438a34,34,0,1,0,34-34A34.1,34.1,0,0,0,404,438Zm48,0a14,14,0,1,1-14-14A14,14,0,0,1,452,438Z" transform="translate(0)"/><path class="cls-2" d="M106,289a10,10,0,0,0-10,10v32.1a10,10,0,0,0,20,0V299A10,10,0,0,0,106,289Z" transform="translate(0)"/><path class="cls-2" d="M148,289a10,10,0,0,0-10,10v32.1a10,10,0,0,0,20,0V299A10,10,0,0,0,148,289Z" transform="translate(0)"/><circle class="cls-1" cx="275.9" cy="63" r="20"/><path class="cls-2" d="M190,289a10,10,0,0,0-10,10v32.1a10,10,0,0,0,20,0V299A10,10,0,0,0,190,289Z" transform="translate(0)"/><path class="cls-2" d="M309.9,62a34,34,0,1,0-34,34A34,34,0,0,0,309.9,62Zm-48,0a14,14,0,1,1,14,14A14,14,0,0,1,261.9,62Z" transform="translate(0)"/><path class="cls-2" d="M295.9,173.7a9.7,9.7,0,0,0-7,2.9,10,10,0,0,0-3,7.1,10.3,10.3,0,0,0,10,10,10,10,0,0,0,7.1-3,9.7,9.7,0,0,0,2.9-7,9.9,9.9,0,0,0-10-10Z" transform="translate(0)"/><path class="cls-2" d="M91,157.5V246H64a10,10,0,0,0-10,10V366.8A74.1,74.1,0,1,0,124.5,384h81a74,74,0,1,0,101,0h81A74,74,0,1,0,458,366.8V256a10,10,0,0,0-10-10H408.6V147.2l40.2-40.3,8.5,15.1a10.1,10.1,0,0,0,8.7,5.1h36a10,10,0,0,0,0-20H471.9l-9.3-16.6L471.9,74H502a10,10,0,0,0,0-20H466a9.9,9.9,0,0,0-8.7,5.1L443,84.4,391.5,136a10.1,10.1,0,0,0-2.9,7V246H305.9V220a10,10,0,0,0-20,0v26h-20V124h20v25.3a10,10,0,0,0,20,0V124h24a30,30,0,0,0,30-30V30a30,30,0,0,0-30-30h-108a30.1,30.1,0,0,0-30,30V94a30.1,30.1,0,0,0,30,30h24V246H201.2L147.9,145.5ZM211.9,94V30a10,10,0,0,1,10-10h108a10,10,0,0,1,10,10V94a10,10,0,0,1-10,10h-108A10,10,0,0,1,211.9,94ZM111,168.1l24.7-4.1,43.1,82H111ZM128,438a54,54,0,1,1-54-54A54,54,0,0,1,128,438Zm182,0a54,54,0,1,1-54-54A54,54,0,0,1,310,438Zm182,0a54,54,0,1,1-54-54A54,54,0,0,1,492,438Zm-54-74H74V266H438v98Z" transform="translate(0)"/><path class="cls-2" d="M295.9,289a10,10,0,0,0,0,20H396.3a10,10,0,0,0,0-20Z" transform="translate(0)"/><path class="cls-2" d="M255.9,289a10,10,0,0,0,0,20,10.3,10.3,0,0,0,7.1-2.9,10.1,10.1,0,0,0,0-14.2A10.3,10.3,0,0,0,255.9,289Z" transform="translate(0)"/></svg>