<?xml version="1.0" encoding="UTF-8"?><svg id="a" xmlns="http://www.w3.org/2000/svg" viewBox="0 0 455.75 196.1"><defs><style>.b{letter-spacing:.02em;}.c{letter-spacing:-.04em;}.d{font-family:Arial-BoldMT, Arial;font-size:38.29px;font-weight:700;}.d,.e,.f,.g,.h,.i{fill:#fff;stroke:#fff;}.e,.f,.g,.i{stroke-miterlimit:10;}.f{stroke-width:3px;}.j{letter-spacing:0em;}.g{stroke-width:4px;}.h{font-family:Arial-Black, Arial;font-size:161.69px;font-weight:800;}.i{stroke-width:9px;}</style></defs><path class="e" d="M111.01,69.99c5.66-33.97-6.18-57.05-46.57-62.33C28.58,13.44,15.68,34.52,24.32,69.99,2.87,78.01-3.86,92.36,3.19,112.62c3.47,11.29,12.43,19.45,33.31,20.78l-14.69-22.21c7.94,2.76,14.81,9.21,21.13,17.55,9.4-1.17,14.94-5.91,14.15-16.48,7.94-2.68,4.09-24.69,8.42-30.63,5.45-10.27,7.78,2.19,7.88,30.99-1.93,16.29,18.29-4.29,37.61-18.63l-27.94,34.39c18.36,7.13,35.25,6.42,48.36-14.69,6.67-21.45-2.59-34.77-20.42-43.7Z"/><line class="i" x1="67.05" y1="118.35" x2="67.05" y2="184.26"/><line class="g" x1="67.05" y1="135.9" x2="81.63" y2="122.29"/><line class="g" x1="67.05" y1="153.46" x2="36.86" y2="129.1"/><line class="f" x1="57.1" y1="112.26" x2="76.62" y2="111.37"/><polyline class="e" points="62.65 118.35 67.05 93.28 71.43 118.35"/><text class="h" transform="translate(130.92 139.22) scale(.8 1)"><tspan class="c" x="0" y="0">T</tspan><tspan class="b" x="109.82" y="0">r</tspan><tspan class="j" x="184.2" y="0">ee</tspan></text><text class="d" transform="translate(157.15 181.19) scale(1.26 1)"><tspan x="0" y="0">Photography</tspan></text></svg>