<?xml version="1.0" encoding="utf-8"?>
<!-- Generator: Adobe Illustrator 23.0.6, SVG Export Plug-In . SVG Version: 6.00 Build 0)  -->
<svg version="1.1" id="Layer_1" xmlns="http://www.w3.org/2000/svg" xmlns:xlink="http://www.w3.org/1999/xlink" x="0px" y="0px"
	 viewBox="0 0 500 500" style="enable-background:new 0 0 500 500;" xml:space="preserve">
<style type="text/css">
	.st0{fill:#FFFFFF;}
</style>
<g>
	<path class="st0" d="M69.3,474c-6.3,2.5-11.8,4.6-14.4,5.7c-9.1-10.6-17-19.8-26.2-30.5c3.5-2.9,8.2-7.5,13.5-11.1
		c21.6-14.8,26.1-34.8,11-56.4C26.7,343.8,14.7,301.5,14,255.9c-0.8-50.3,24.6-87,64.5-114.3c43.1-29.6,92.1-45.5,142.9-54.2
		c51.6-8.8,103.9-14.2,155.9-20.4c25.4-3,31-8.5,30.2-34.3c-0.2-6.8-2-14.2,0.3-20.1c1.9-5.1,8.5-8.5,13.1-12.6
		c2.6,4.4,6,8.5,7.4,13.2c2,6.9,2.6,14.2,3.8,21.3c3.1,1.7,6.2,3.4,9.4,5.1c2.8-5.6,4.5-12.4,8.7-16.6c3.5-3.4,10.1-3.6,15.3-5.2
		c0.3,6.1,1.8,12.4,0.5,18.1c-1.1,5-5.4,9.2-10.4,17.2c8.2,0,12.9-0.7,17.4,0.2c4.5,0.9,8.6,3.4,12.9,5.2c-2.2,4.8-3.2,10.8-6.8,14
		c-4.4,3.9-10.8,6.1-16.7,7.8c-30.7,8.8-37.4,16-37.1,48.4c0.4,42.9,4.4,85.8,3.2,128.6c-1,35.8-3.1,72.6-12,107.1
		c-18.7,72.3-71,110.8-142,126.8c-29.8,6.7-58.1,3.6-86-8c-15-6.2-30.4-12.3-46.2-16c-21.6-5.1-39.7,2.2-53.8,19.9
		c-4.3,5.4-11.3,8.7-17.1,13c-0.1-6.8-0.2-13.6-0.4-20.5C71,478.5,70.4,477.5,69.3,474z M396.8,103.5c-0.6-2.5-1.2-5-1.8-7.5
		c-14.7,0-29.8-2.5-43.9,0.4c-78.7,16.2-148.9,51.1-210.9,101.8c-29.2,23.8-53.7,52.3-62,90.5c-7.9,36.3-3.1,70.9,21.5,100.4
		c13.6,16.3,22.2,16.2,34.8-0.4c9.5-12.5,17.3-26.3,25.8-39.6c24.3-37.9,46.1-77.7,73.3-113.3c36-47.2,85.1-80.2,134.8-111.7
		C378.4,117.8,387.4,110.4,396.8,103.5z M216.4,359.8c7.9,0,14.5,0.7,20.8-0.1c36.6-5,67.1-21.9,92-48.8
		c37-39.9,48.4-90.3,57.7-141.5c0.7-4.1-0.5-8.5-0.9-13C346.6,167.5,223.8,313.5,216.4,359.8z M392.2,300.6
		c-1.5-0.7-3.1-1.4-4.6-2.1c-5.7,12.1-11.3,24.3-17.2,36.3c-20.6,41.8-54.1,66.5-100.5,70.2c-19.8,1.6-40.2-2.8-60.2-4.9
		c-11.8-1.2-24.1-5.2-30.6,9.6c-6.8,15.3,0,29.3,19.4,31.6c59.3,7.2,115.6,1.2,158.1-47.6C379.7,367.1,392.3,336,392.2,300.6z
		 M55.9,235.1c2.4,1.6,4.8,3.3,7.3,4.9c45.3-62.6,105.4-104.5,177.2-130.4c-66.2,9.2-126.2,30.5-167.7,86.2
		C64.4,206.9,61.4,221.9,55.9,235.1z"/>
</g>
</svg>
