<?xml version="1.0" encoding="UTF-8"?>
<svg id="Layer_1" xmlns="http://www.w3.org/2000/svg" version="1.1" viewBox="0 0 1920 1080">
  <!-- Generator: Adobe Illustrator 29.3.1, SVG Export Plug-In . SVG Version: 2.1.0 Build 151)  -->
  <defs>
    <style>
      .st0 {
        fill: #fff;
      }

      .st1 {
        font-family: Bauhaus93, 'Bauhaus 93';
        font-size: 69.5px;
      }
    </style>
  </defs>
  <g>
    <path d="M-1151.78,415.97l58.6-21.09c7.87,31.52,6.51,58.77-4.08,81.76-10.6,22.99-29.54,39.8-56.84,50.43-27.76,10.81-54.61,10.55-80.55-.78-25.95-11.33-44.29-30.78-55.03-58.35-10.81-27.76-10.37-54.81,1.33-81.16,11.69-26.35,31.51-44.97,59.45-55.85,27.48-10.7,54.03-10.35,79.64,1.06,17.73,7.87,33.71,22.24,47.92,43.12l-57.84,27.08c-14.58-17.79-31.15-23.08-49.72-15.85-11.83,4.61-20,12.5-24.5,23.69-4.5,11.18-4.29,23.1.64,35.75,4.75,12.2,12.45,20.8,23.1,25.82,10.65,5.02,21.76,5.28,33.32.78,11.74-4.57,19.72-11.71,23.96-21.43,4.23-9.72,4.43-21.38.61-34.98Z"/>
    <path d="M-892.6,464.44l-47.28,136.01c-5.9,16.97-15.83,29.03-29.79,36.17-13.96,7.14-29.05,7.89-45.29,2.25-19.56-6.8-31.41-20.89-35.55-42.29-9.7,7.38-18.91,11.86-27.62,13.43-8.71,1.57-18.42.5-29.12-3.22-16.97-5.9-28.12-15.77-33.44-29.61-5.32-13.84-4.49-30.82,2.5-50.93l45.64-131.31,56.18,19.53-42.71,122.87c-2.12,6.09-3.03,10.27-2.73,12.54.3,2.27,1.92,3.92,4.87,4.95,5.53,1.92,9.92-1.77,13.16-11.09l43.04-123.83,56.18,19.53-42.71,122.87c-2.05,5.9-2.93,10.05-2.61,12.43.31,2.38,1.94,4.09,4.89,5.11,5.53,1.92,10.03-2.1,13.5-12.06l42.71-122.87,56.18,19.53Z"/>
    <text class="st1" transform="translate(-1078.27 394.94) rotate(19.13) scale(1.3 1)"><tspan x="0" y="0">arter</tspan></text>
    <text class="st1" transform="translate(-908.21 669.43) rotate(-70.87) scale(.9 1)"><tspan x="0" y="0">aldhart</tspan></text>
  </g>
  <g>
    <g>
      <path class="st0" d="M963.73,731.28c-63.4,0-123-23.58-167.82-66.38-44.8-42.78-69.47-99.66-69.47-160.15s24.67-117.37,69.47-160.15c44.82-42.81,104.42-66.38,167.82-66.38s123,23.58,167.82,66.38c44.8,42.78,69.47,99.66,69.47,160.15s-24.67,117.37-69.47,160.15c-44.82,42.81-104.42,66.38-167.82,66.38Z"/>
      <path d="M963.73,280.2c31.79,0,62.62,5.94,91.64,17.67,28.02,11.32,53.19,27.52,74.79,48.16,21.59,20.62,38.55,44.64,50.39,71.37,12.25,27.66,18.46,57.05,18.46,87.34s-6.21,59.68-18.46,87.34c-11.84,26.73-28.79,50.75-50.39,71.37-21.61,20.64-46.77,36.84-74.79,48.16-29.02,11.72-59.85,17.67-91.64,17.67s-62.62-5.94-91.64-17.67c-28.02-11.32-53.19-27.52-74.79-48.16-21.59-20.62-38.55-44.64-50.39-71.37-12.25-27.66-18.46-57.05-18.46-87.34s6.21-59.68,18.46-87.34c11.84-26.73,28.79-50.75,50.39-71.37,21.61-20.64,46.77-36.84,74.79-48.16,29.02-11.72,59.85-17.67,91.64-17.67M963.73,276.2c-132.15,0-239.28,102.32-239.28,228.54s107.13,228.54,239.28,228.54,239.28-102.32,239.28-228.54-107.13-228.54-239.28-228.54h0Z"/>
    </g>
    <path d="M910.55,438.23l58.6-21.09c7.87,31.52,6.51,58.77-4.08,81.76-10.6,22.99-29.54,39.8-56.84,50.43-27.76,10.81-54.61,10.55-80.55-.78-25.95-11.33-44.29-30.78-55.03-58.35-10.81-27.76-10.37-54.81,1.33-81.16,11.69-26.35,31.51-44.97,59.45-55.85,27.48-10.7,54.03-10.35,79.64,1.06,17.73,7.87,33.71,22.24,47.92,43.12l-57.84,27.08c-14.58-17.79-31.15-23.08-49.72-15.85-11.83,4.61-20,12.5-24.5,23.69-4.5,11.18-4.29,23.1.64,35.75,4.75,12.2,12.45,20.8,23.1,25.82,10.65,5.02,21.76,5.28,33.32.78,11.74-4.57,19.72-11.71,23.96-21.43,4.23-9.72,4.43-21.38.61-34.98Z"/>
    <path d="M1169.72,486.69l-47.28,136.01c-5.9,16.97-15.83,29.03-29.79,36.17-13.96,7.14-29.05,7.89-45.29,2.25-19.56-6.8-31.41-20.89-35.55-42.29-9.7,7.38-18.91,11.86-27.62,13.43-8.71,1.57-18.42.5-29.12-3.22-16.97-5.9-28.12-15.77-33.44-29.61-5.32-13.84-4.49-30.82,2.5-50.93l45.64-131.31,56.18,19.53-42.71,122.87c-2.12,6.09-3.03,10.27-2.73,12.54.3,2.27,1.92,3.92,4.87,4.95,5.53,1.92,9.92-1.77,13.16-11.09l43.04-123.83,56.18,19.53-42.71,122.87c-2.05,5.9-2.93,10.05-2.61,12.43.31,2.38,1.94,4.09,4.89,5.11,5.53,1.92,10.03-2.1,13.5-12.06l42.71-122.87,56.18,19.53Z"/>
  </g>
</svg>