<?xml version="1.0" encoding="UTF-8"?><svg id="Layer_1" xmlns="http://www.w3.org/2000/svg" viewBox="0 0 523.2 639.4"><defs><style>.cls-1{fill:#d9ba6c;stroke-width:0px;}</style></defs><path class="cls-1" d="m515.2,306.2l-82.5-42.2c-6.2-3.2-14-1.3-18.1,4.3-5.1,6.8-1.5,14.8.7,22h-68v-35.2c6.6-18,10.5-34.3,12-49.9,3.4-35.3-7.2-69.1-29.8-95.3-13.2-15.3-29.6-26.1-45.5-36.5-14.9-9.8-29-19-40.1-31.5-3.1-3.5-3.7-7-2.5-14.1,2.1-11.9-5-23.4-16.6-26.8-12.3-3.7-25.8,3.6-29.5,16-7.3,24.6,0,44.1,13.1,60.6L69.9,244.1H14.3c-10.5,0-17.5,11.4-12.8,20.8l15.1,29.8c-5.1,3.9-8.4,10-8.4,16.9v16.2c0,6.9,3.3,13,8.4,16.9,0,0-15,29.7-15.1,29.8-4.8,9.4,2.3,20.8,12.8,20.8h55.5l138.5,166.6c-13,16.4-20.4,36-13.1,60.6,3.7,12.3,17.2,19.6,29.5,16,11.6-3.4,18.7-15,16.6-26.8-1.2-7.1-.6-10.6,2.5-14.1,11.1-12.5,25.2-21.8,40.1-31.5,15.9-10.4,32.3-21.2,45.5-36.5,22.6-26.2,33.1-60,29.8-95.3-1.5-15.6-5.4-32-12-49.9v-35.2h68c-2.2,7.4-5.9,15-.7,22,4.1,5.6,11.9,7.4,18.1,4.3,0,0,82.4-42.2,82.5-42.2,10.8-5.5,10.8-21.5,0-27h.1Zm-223.3-43.4h36.5v27.4h-36.5v-27.4ZM213.2,22.3c.8-2.6,3.6-4.1,6.2-3.4,2.4.7,3.9,3.1,3.5,5.6-5.6,31.6,28.3,49.8,50.8,64.6,15.5,10.1,30.1,19.7,41.5,33,19.2,22.3,28.2,51.1,25.3,81.3-1.2,12.7-4.3,26.1-9.3,40.7h-34.1c.4-.7.7-1.5,1-2.2,6.2-13,12.6-26.4,15.3-41.8,5.3-30.3-5.7-59-31.7-83.1-6.7-6.2-14.3-12-22.3-18.3-32.9-25.4-55.4-45.8-46.3-76.5h.1Zm-138.3,240.5c9.7,0,19,4.2,25.4,11.6l13.8,15.8H35.3l-13.9-27.4h53.5Zm-39.6,86.3h78.8l-13.8,15.8c-6.4,7.4-15.7,11.6-25.4,11.6H21.5l13.9-27.4h0Zm237.9,0v36.8c0,1.3.3,2.5.8,3.7,2.3,5.5,4.9,10.8,7.3,15.9,5.9,12.4,11.5,24.1,13.8,37,4.2,24-4.5,46.3-26,66.1-6.1,5.6-13.4,11.2-21.1,17.2-8.8,6.8-18.3,14.1-26.8,22.2l-129.3-155.6c8.6-3,16.5-8.1,22.6-15.2l24.5-28.1h134.3,0Zm42,168.1c-11.5,13.3-26.1,22.9-41.5,33-15.3,10-31.1,20.4-43.9,34.8-9,10.1-8.4,21.2-6.9,29.8.4,2.5-1.1,4.9-3.5,5.6-2.5.8-5.4-.7-6.2-3.4-9.2-30.7,13.4-51.1,46.3-76.5,8.1-6.2,15.7-12.1,22.3-18.3,26-24.1,37-52.8,31.7-83.1-2.7-15.3-9.1-28.8-15.3-41.8-.3-.7-.7-1.5-1-2.2h34.1c5,14.6,8.1,28,9.3,40.7,2.9,30.1-6.1,59-25.3,81.3h-.1Zm13.2-140.7h-36.5v-27.4h36.5v27.4ZM29.6,330.4c-1.4,0-2.6-1.2-2.6-2.6v-16.2c0-1.4,1.2-2.6,2.6-2.6h157.4c5.2,0,9.4-4.2,9.4-9.4s-4.2-9.4-9.4-9.4h-48l-24.5-28.1c-6.1-7-13.9-12.2-22.6-15.2L221.2,91.3c15.1,14.3,32.7,25.4,47.9,39.5,21.4,19.8,30.2,42,26,66-3.3,18.9-13.7,35.5-21.1,52.9-.5,1.2-.8,2.4-.8,3.7v36.8h-48.8c-5.2,0-9.4,4.2-9.4,9.4s4.2,9.4,9.4,9.4h196.5l3.3,10.7-3.3,10.7H29.6Zm403.8,23.7l3.5-11.5,6.1-20.1c.5-1.8.5-3.7,0-5.5l-6.1-20.1h0l-3.5-11.6,67.1,34.4-67.1,34.4h0Z"/></svg>