<?xml version="1.0" encoding="UTF-8"?><svg id="Layer_1" xmlns="http://www.w3.org/2000/svg" viewBox="0 0 638.8 482.5"><defs><style>.cls-1{fill:#d9ba6c;stroke-width:0px;}</style></defs><path class="cls-1" d="m319.2,398.9c-15.2,0-27.6,12.4-27.6,27.6s12.4,27.5,27.6,27.5,27.6-12.4,27.6-27.5-12.4-27.6-27.6-27.6Zm0,36.4c-4.9,0-8.9-4-8.9-8.9s4-8.9,8.9-8.9,8.9,4,8.9,8.9-4,8.9-8.9,8.9Z"/><path class="cls-1" d="m319.2,276c-15.2,0-27.6,12.4-27.6,27.6s12.4,27.6,27.6,27.6,27.6-12.4,27.6-27.6-12.4-27.6-27.6-27.6Zm0,36.4c-4.9,0-8.9-4-8.9-8.8s4-8.9,8.9-8.9,8.9,4,8.9,8.9-4,8.8-8.9,8.8Z"/><path class="cls-1" d="m319.2,160.2c-15.2,0-27.6,12.4-27.6,27.6s12.4,27.6,27.6,27.6,27.6-12.4,27.6-27.6-12.4-27.6-27.6-27.6Zm0,36.4c-4.9,0-8.9-4-8.9-8.9s4-8.9,8.9-8.9,8.9,4,8.9,8.9-4,8.9-8.9,8.9Z"/><path class="cls-1" d="m191.3,398.9c-15.2,0-27.6,12.4-27.6,27.6s12.4,27.5,27.6,27.5,27.6-12.4,27.6-27.5-12.4-27.6-27.6-27.6Zm0,36.4c-4.9,0-8.9-4-8.9-8.9s4-8.9,8.9-8.9,8.9,4,8.9,8.9-4,8.9-8.9,8.9Z"/><path class="cls-1" d="m447.1,398.9c-15.2,0-27.6,12.4-27.6,27.6s12.4,27.5,27.6,27.5,27.6-12.4,27.6-27.5-12.4-27.6-27.6-27.6Zm0,36.4c-4.9,0-8.9-4-8.9-8.9s4-8.9,8.9-8.9,8.8,4,8.8,8.9-4,8.9-8.8,8.9Z"/><path class="cls-1" d="m75,333.4c4.2,8.3,10.1,15.8,17.5,21.7l9.1,7.2v9.8c-11.7,3.9-20.1,15-20.1,27.9v53c0,16.2,13.2,29.5,29.5,29.5h416.6c16.2,0,29.5-13.2,29.5-29.5v-53c0-13-8.4-24-20.1-27.9v-9.8l9.1-7.2c7.4-5.9,13.4-13.4,17.5-21.7,24-28.7,42.5-57.5,55-85.6,2.1-4.7,0-10.2-4.7-12.3s-10.2,0-12.3,4.8c-7.9,17.9-18.5,36.1-31.6,54.5-.2-1.3-.4-2.6-.6-3.9-3.6-23.3-10.6-46.3-20.5-67.7-10.2-21.9-21.8-44.5-40.3-60.7,16.9-22.1,56.6-82.6,28-130.2-5-8.3,5.8-17.5,13.2-11.4,27.4,22.6,88.5,85.7,64.9,181.7-1.2,5,1.8,10.1,6.9,11.3,5,1.2,10.1-1.8,11.3-6.9,26.1-106.3-41.1-175.7-71.1-200.6-23.2-19.2-56.6,9.6-41.2,35.4,11.4,19,9.6,44-5.2,74.4-8.2,16.9-18.5,30.9-23.9,37.7-2.4-.5-4.9-.7-7.5-.7-9.2,0-18.1,3.4-25,9.5-23.8-19.9-51.8-34.6-81.7-42.8l-6.7-16c-2.4-5.6-5.9-10.5-10.2-14.5l-18-71.9v-.2c-6.1-22.8-39.5-22.6-45.6,0v.2l-18.1,72.3c-4,3.8-7.2,8.3-9.5,13.5l-7.2,16.5c-30,8.2-57.9,23-81.8,42.9-6.9-6.1-15.8-9.5-25-9.5s-5,.3-7.5.7c-5.4-6.8-15.5-20.6-23.7-37.4-15-30.6-16.8-55.7-5.4-74.8,15.5-25.9-18-54.6-41.2-35.4-15.4,12.7-37.1,34.2-53.8,64.4-2.5,4.5-.8,10.2,3.7,12.7s10.2.8,12.7-3.7c15.2-27.7,35.2-47.4,49.3-59,7.4-6.2,18.1,3.1,13.2,11.4-28.6,47.6,11.2,108.1,28,130.2-1.4,1.2-2.7,2.6-3.9,4-30.7,36.3-51.1,81.3-57.5,128.4C23.6,231.5,8.9,171.3,24.9,115.3c1.4-5-1.5-10.1-6.4-11.6-5-1.4-10.1,1.5-11.6,6.4-9.1,31.8-9.2,65.3-.4,99.5,10.4,40.3,33.4,81.9,68.4,123.8h0Zm463.3,119.6c0,5.9-4.8,10.8-10.8,10.8H110.9c-5.9,0-10.8-4.8-10.8-10.8v-53c0-5.9,4.8-10.8,10.8-10.8h416.6c5.9,0,10.8,4.8,10.8,10.8v53ZM293.8,101.2c7.4-5.1,17-4.8,25.8-4.8,12.8,0,27.5,1.1,33.3,14.5l1.7,4c-11.7-1.9-23.5-2.9-35.4-2.9s-23.5.9-35.1,2.8c2.4-5.4,4.7-10.3,9.7-13.7h0Zm158.7,80.9c39,35.3,62.5,84.7,65.3,136.9.7,12.9.3,25.8.3,38.7v12.8h-138.7v-230.4c27.1,8.6,52,23,73.1,42h0Zm-174.9-46.9c3.6-.8,7.2-1.4,10.9-2h.1c23.9-3.6,48.4-3,72.1,2v235.4h-83.1v-235.5h0Zm206,36.7c8.6,0,14.3,6.4,19.3,12.8,25.9,32.8,42.7,71.9,48.2,113.3,2,14.8-3.5,30.1-14.4,40.3v-14.4c-1.3-47.3-17.3-91.7-46.7-128.9-3.2-4-6.6-8-10-11.8-.5-.6-7.1-7.9-7.4-7.7,3.2-2.3,7.1-3.5,11-3.5h0ZM314.5,22.1c1.2-4.8,8.2-4.6,9.5,0l14.1,56.6c-.8,0-1.6-.2-2.5-.3-9.9-.9-20-1-30-.2-1.7,0-3.4.3-5.1.6h-.2s14-56,14.2-56.7Zm-55.5,348.4H120.3v-12.8c0-12.9-.4-25.8.3-38.7,4.4-81.5,60.6-154.3,138.4-178.9v230.4h0Zm-93.2-195.1c-6.2,6.1-12,12.7-17.4,19.5-29.4,37.2-45.5,81.6-46.7,128.9v14.4c-10.9-10.1-16.4-25.5-14.4-40.3,5.6-41.4,22.4-80.6,48.3-113.3,7.5-9.5,18.6-17.6,30.4-9.2h-.2Z"/></svg>