<?xml version="1.0" encoding="UTF-8"?><svg id="Layer_1" xmlns="http://www.w3.org/2000/svg" viewBox="0 0 573.8 639.9"><defs><style>.cls-1{fill:#d9ba6c;stroke-width:0px;}</style></defs><path class="cls-1" d="m287,195.6c15.4,0,27.9-12.5,27.9-27.9s-12.5-27.9-27.9-27.9-27.9,12.5-27.9,27.9,12.5,27.9,27.9,27.9Zm0-37.1c5.1,0,9.2,4.1,9.2,9.2s-4.1,9.2-9.2,9.2-9.2-4.1-9.2-9.2,4.1-9.2,9.2-9.2Z"/><path class="cls-1" d="m152.8,195.6c15.4,0,27.9-12.5,27.9-27.9s-12.5-27.9-27.9-27.9-27.9,12.5-27.9,27.9,12.5,27.9,27.9,27.9Zm0-37.1c5.1,0,9.2,4.1,9.2,9.2s-4.1,9.2-9.2,9.2-9.2-4.1-9.2-9.2,4.1-9.2,9.2-9.2Z"/><path class="cls-1" d="m421.1,195.6c15.4,0,27.9-12.5,27.9-27.9s-12.5-27.9-27.9-27.9-27.9,12.5-27.9,27.9,12.5,27.9,27.9,27.9Zm0-37.1c5.1,0,9.2,4.1,9.2,9.2s-4.1,9.2-9.2,9.2-9.2-4.1-9.2-9.2,4.1-9.2,9.2-9.2Z"/><path class="cls-1" d="m397.4,312.8c5.2,0,9.4-4.2,9.4-9.4v-20.2c0-5.2-4.2-9.4-9.4-9.4s-9.4,4.2-9.4,9.4v20.2c0,5.2,4.2,9.4,9.4,9.4Z"/><path class="cls-1" d="m382.8,344.3h29.3c5.2,0,9.4-4.2,9.4-9.4s-4.2-9.4-9.4-9.4h-29.3c-5.2,0-9.4,4.2-9.4,9.4s4.2,9.4,9.4,9.4Z"/><path class="cls-1" d="m176.5,312.8c5.2,0,9.4-4.2,9.4-9.4v-20.2c0-5.2-4.2-9.4-9.4-9.4s-9.4,4.2-9.4,9.4v20.2c0,5.2,4.2,9.4,9.4,9.4Z"/><path class="cls-1" d="m161.9,344.3h29.3c5.2,0,9.4-4.2,9.4-9.4s-4.2-9.4-9.4-9.4h-29.3c-5.2,0-9.4,4.2-9.4,9.4s4.2,9.4,9.4,9.4Z"/><path class="cls-1" d="m287,343.1c10.4,0,20.2-4.3,26.8-11.9,3.4-3.9,3-9.8-.9-13.2-3.9-3.4-9.8-3-13.2.9-3.1,3.5-7.7,5.5-12.7,5.5s-9.6-2-12.7-5.5c-3.4-3.9-9.3-4.3-13.2-.9-3.9,3.4-4.3,9.3-.9,13.2,6.6,7.6,16.4,11.9,26.8,11.9h0Z"/><path class="cls-1" d="m555,212.3c-.3-1.8-5.4-19.1-5.2-19.2,9.8-4.4,16.6-14.1,16.6-25.5s-12.5-27.9-27.9-27.9-7.4.7-10.7,2.2c-4.9-8.8-10.3-17.4-16.2-25.7C459.8,43.4,375.9,0,287,0s-65.5,5.9-96.4,17.4c-4.8,1.8-7.3,7.2-5.5,12.1,1.8,4.8,7.2,7.3,12.1,5.5,28.7-10.8,59-16.2,89.8-16.2,76.6,0,149.3,34.6,198,93.5H89c20.4-24.6,45.4-45.5,73.2-61.1,4.5-2.5,6.1-8.2,3.6-12.7s-8.2-6.1-12.7-3.6c-35.7,19.9-67,48.1-90.7,81.4-5.9,8.3-11.3,16.9-16.2,25.7-3.4-1.4-7-2.2-10.7-2.2-15.4,0-27.9,12.5-27.9,27.9s6.8,21.1,16.6,25.5c-1.9,6.1-3.6,12.2-5.1,18.4-4.5,19.1-7,38.7-7.4,58.6-7.4,9.9-11.7,22.2-11.7,35.5s5.2,27.7,13.7,38.1c5.8,78.2,24.7,108.9,61.9,143.4,9.2,9.9,11.7,22.5,14.7,37.2,4.6,22.5,10.3,50.3,44.7,70.5-1.6,11-2.6,22.8-2.6,35.3s4.2,9.4,9.4,9.4h290.3c5.2,0,9.4-4.2,9.4-9.4,0-12.5-.9-24.2-2.6-35.3,34.5-20.2,40.1-47.9,44.7-70.5,1.5-7.2,2.8-14,5-20.2,1.7-4.9-.9-10.2-5.8-11.9-4.9-1.7-10.2.9-11.9,5.8-2.6,7.4-4.1,15.1-5.6,22.6-4.1,20-7.9,39.1-30.1,54.4-11-45.9-33.5-76.7-46.5-91.5,50.6-24.8,90.8-67.5,112.4-119.6.2,0,.5,0,.7.1,12.8,2.7,26.4,1.1,38.2-4.5-6.2,55.8-20.5,80-45,104.8-3.6,3.7-3.6,9.6,0,13.2,3.7,3.6,9.6,3.6,13.2,0,29.4-29.7,46.5-60,51.9-133.8,8.6-10.3,13.7-23.6,13.7-38.1s-4.4-25.6-11.7-35.5c-.4-19.6-2.8-39-7.2-57.8h0Zm-11.9,122.4c-9.2,9.2-22.6,13.5-35.4,11.5h-.2c4.3-13.4,7.4-27.2,9.1-41.2v-.2c1.7-12.9,2.2-26.1,1.6-39.1v-.8c.3,0,.6,0,.9.1,20.3,2.5,36,20.3,36,40.7s-4.6,21.5-11.9,28.9h0Zm-477,11.5c-24.3,3.9-47.4-15.9-47.4-40.5s16.3-38.7,36.9-40.8v.8c-.5,13.1,0,26.2,1.7,39.2,1.8,14,4.8,27.8,9.1,41.2h-.3Zm-34.8-93.2c.9-10.1,2.3-20.1,4.4-30h25.6c-.5,2.2-.9,4.2-1.3,6.3-1.1,5.5-2,11-2.7,16.5h-.3c-8.9.4-17.8,2.9-25.7,7.1h0Zm511.3,0c-1.5-.8-3.1-1.6-4.7-2.3-6.6-2.9-13.7-4.5-20.9-4.8h-.3c-1-7.6-2.3-15.3-4.1-22.8h25.6c2,9.9,3.5,19.9,4.4,30h0Zm-49.3-30c6.1,24.2,7.8,49.5,5.4,74.4-9.7,94.2-81.1,170.3-173,187.2-25.5,4.7-51.9,4.8-77.4,0-91.9-16.9-163.3-93.1-173-187.2-2.6-24.8-.8-50.2,5.4-74.4h412.6Zm-224.4,283.2c12,.9,24.1,1,36.2,0,5.3-.4,10.5-1,15.7-1.7-3.2,15.7-17.1,27.6-33.8,27.6s-30.6-11.9-33.8-27.6c5.2.8,10.4,1.3,15.7,1.7h0Zm269.6-347.7c5.1,0,9.2,4.1,9.2,9.2s-1.6,6-4.1,7.7c-2.2-5.6-4.6-11.1-7.1-16.6.7-.2,1.4-.2,2.1-.2h-.1Zm-39.5-27.5c15.3,22.4,27.1,47.3,34.6,73.4H40.3c1.4-4.9,3-9.8,4.7-14.7,0-.1,0-.2.2-.4,3.6-10.1,7.9-20,12.7-29.5,0,0,0-.2,0-.3,5-9.8,10.6-19.4,16.9-28.6h424.1ZM26.3,167.6c0-5.1,4.1-9.2,9.2-9.2s1.4,0,2.1.2c-2.6,5.5-4.9,11-7.1,16.6-2.5-1.6-4.1-4.5-4.1-7.7h0Zm112.6,407.4c-22.2-15.4-26.1-34.4-30.2-54.5-3.3-16.1-6.7-32.7-19.6-46.5,0-.2-.3-.3-.4-.4-32.2-29.8-48.1-53.9-54.7-114.1,4.9,2.4,10.2,4,15.7,5h0c7.5,1.3,15.6,1.1,23.2-.6,21.6,52.1,61.9,94.9,112.4,119.6-6,6.8-14,17-21.9,30.4-11.2,19-19.5,39.7-24.6,61.1Zm53.1-69.8v115.5h-40.6c2.3-55.4,24.8-94.5,40.6-115.5Zm18.7-11.1c7.6,2.7,15.3,4.9,23.2,6.8,1.7,27.8,24.9,50,53.1,50s51.4-22.1,53.1-50c7.8-1.8,15.6-4.1,23.2-6.8v126.6h-152.6v-126.6Zm171.3,126.6v-115.5c15.8,20.9,38.2,60.1,40.6,115.5h-40.6Z"/></svg>