<?xml version="1.0" encoding="UTF-8"?><svg id="Layer_1" xmlns="http://www.w3.org/2000/svg" viewBox="0 0 592.1 648.5"><defs><style>.cls-1{fill:#d9ba6c;stroke-width:0px;}</style></defs><path class="cls-1" d="m17.8,325.1c10,10,22.9,16.1,36.8,17.5v116.1c0,30.7,25,55.8,55.8,55.8s28.8-6,38.8-15.7c2.8,10.8,8.7,20.3,16.7,27.6-15.9,31.5-23.9,66.1-23.9,102.9s4.2,9.4,9.4,9.4h289.3c5.2,0,9.4-4.2,9.4-9.4,0-36.8-8.1-71.4-23.9-102.9,8-7.2,14-16.8,16.7-27.6,10,9.7,23.7,15.7,38.8,15.7,30.7,0,55.8-25,55.8-55.8v-116.1c30.6-3.1,54.6-29,54.6-60.5s-24-57.4-54.6-60.4v-2.8c8.9-6.3,14.8-16.6,14.8-28.3,0-16.8-12-30.8-27.9-34-5.9-14.4-24.2-53.8-61-89.7-3.7-3.6-9.6-3.5-13.2.2s-3.5,9.6.2,13.2c28.8,28,45.6,58.9,53.4,75.6h-165.3V22.4c30.7,5.5,59,17.2,84.2,34.8,4.2,3,10.1,1.9,13-2.3,3-4.2,1.9-10.1-2.3-13-30.6-21.4-65.2-34.8-103-39.7h0c-22.1-2.9-46-2.9-68.1,0h0c-76.5,9.9-125.8,52.9-153.7,87.2-23.3,28.7-35.8,55.7-40.4,67.2-15.9,3.1-27.9,17.2-27.9,34s5.8,22.1,14.8,28.3v2.8c-31.1,3-55.1,29-55.1,60.4s6.3,31.5,17.8,43Zm162.1-70.6c5.2,0,9.4-4.2,9.4-9.4v-20h49.4v10.5c0,31-25.2,56.2-56.2,56.2s-56.2-25.2-56.2-56.2v-10.5h44.4v20c0,5.2,4.2,9.3,9.4,9.3h-.2Zm2.5,56.1c41.3,0,74.9-33.6,74.9-74.9v-10.5h77.3v10.5c0,41.3,33.6,74.9,74.9,74.9s74.9-33.6,74.9-74.9v-10.5h34.1v69.4c0,13.3-31.1,31.6-41.3,37.6l-.6.3c-19.3,11.4-40,17.4-60,17.4-35.1,0-69.2-15.6-92.1-42.3-7.6-8.9-16.4-16.4-28.7-16.4s-21.3,7.9-28.7,16.4c-22.9,26.6-57,42.2-92.1,42.2s-40.7-6-60-17.4l-.6-.3c-10.2-6-41.3-24.3-41.3-37.6v-69.4h34.1v10.5c0,41.3,33.6,74.9,74.9,74.9h.3Zm229.7-56.1c5.2,0,9.4-4.2,9.4-9.4v-20h44.4v10.5c0,31-25.2,56.2-56.2,56.2s-56.2-25.2-56.2-56.2v-10.5h49.4v20c0,5.2,4.2,9.3,9.4,9.3h-.2Zm-17.9,144.3c-2.7.2-6,.3-9.7.3-22.4,0-62.7-4.7-80.3-35.8-1.7-2.9-4.8-4.7-8.1-4.7s-6.5,1.8-8.1,4.7c-17.6,31.1-57.9,35.8-80.3,35.8s-7.1-.1-9.7-.3c-.3-18.5,9.8-30.9,13.7-35,27-7.2,51.4-22.4,70.1-44.1,4-4.7,7.4-9.8,14.4-9.8s10.6,5.3,14.4,9.8c18.7,21.7,43,36.9,70.1,44.1,3.8,4,13.9,16.5,13.7,35h-.2Zm-212.4,137.5c.1,0,.3,0,.4.2,6,2.5,12.5,3.8,19,4.1v79.3h-40.4c1.2-29.7,8.2-57.7,20.9-83.5h.1Zm38.2,1.7c8.4-2.6,15.9-7.1,22-13.1,1,3.7,2.3,7.3,4,10.7,9.2,18.6,29.2,31.1,50,31.1s44.4-15,52.3-36.4c.6-1.7,1.2-3.5,1.7-5.3,6.2,6,13.7,10.5,22,13.1v81.8h-152v-81.8h0Zm190.2-1.7c12.7,25.8,19.7,53.8,20.9,83.5h-40.4v-79.3h1.7c6.1-.4,12.1-1.8,17.8-4.1h0Zm108.5-77.6c0,20.4-16.6,37.1-37.1,37.1s-37-16.6-37-37.1-4.2-9.4-9.4-9.4-9.4,4.2-9.4,9.4v26.2c0,21.2-18.6,38.4-39.7,36.9-14.8-1-28-11.1-32.6-25.3v-.2c-.6-1.9-1.1-3.8-1.4-5.7-.8-5.2-6-8.8-11.2-7.7-4.4,1-7.9,4.5-7.9,9.3v18.7c0,20.4-16.6,37.1-37.1,37.1s-37.1-16.6-37.1-37.1v-18.7c0-5.4-4.7-9.5-9.9-9.5s0,0-.1,0c-4.5,0-8.4,3.5-9.1,7.9-.3,1.9-.8,3.9-1.4,5.8-4.3,13-15.4,22.7-29.2,24.9-22.2,3.6-43-14.1-43-36.6v-26.2c0-5.2-4.2-9.4-9.4-9.4s-9.4,4.2-9.4,9.4c0,20.4-16.6,37.1-37.1,37.1s-37.1-16.6-37.1-37.1v-132.1c.4.3.8.7,1.2,1,27.6,23.4,64,41,100.7,41s7.3-.2,10.9-.4c-5,10.2-8.8,23.9-6.2,40.7.6,4.1,3.8,7.2,7.9,7.8.3,0,8.2,1.2,19.7,1.2,23.6,0,64.1-4.7,88.4-33.6,24.3,28.9,64.8,33.6,88.4,33.6s19.4-1.1,19.7-1.2c4.1-.6,7.3-3.8,7.9-7.8,2.6-16.7-1.2-30.5-6.3-40.7,3.6.3,7.3.4,11,.4,23.3,0,47.3-6.9,69.5-20,11.3-6.6,22.5-13.4,32.4-22v132.1l.4.2Zm54.6-176.6c0,21.1-15.6,38.6-35.9,41.6v-83.2c20.3,3,35.9,20.5,35.9,41.6ZM319.5,19.9v136h-47V19.9c15.4-1.5,31.6-1.5,47,0ZM74.5,174.6h60.9c5.2,0,9.4-4.2,9.4-9.4s-4.2-9.4-9.4-9.4h-46.9c5.9-12.7,17-33.6,34.6-55.2C158.2,57.9,202.1,31.6,253.8,22.4v133.5h-81c-5.2,0-9.4,4.2-9.4,9.4s4.2,9.4,9.4,9.4h344.7c8.8,0,15.9,7.1,15.9,15.9s-7.3,15.9-15.9,15.9c0,0-444.5-.1-444.9-.1-7.9-.1-14.1-8.4-14.1-15.8s7.1-15.9,15.9-15.9h0Zm-19.8,65.9v83.2c-8.9-1.3-17.1-5.4-23.6-11.9-7.9-7.9-12.3-18.5-12.3-29.7,0-21.1,15.6-38.6,35.9-41.6h0Z"/></svg>