<?xml version="1.0" encoding="UTF-8"?><svg id="Layer_1" xmlns="http://www.w3.org/2000/svg" viewBox="0 0 638.6 595.6"><defs><style>.cls-1{fill:#d9ba6c;stroke-width:0px;}</style></defs><path class="cls-1" d="m203.7,177.5c14,0,25.5-11.4,25.5-25.5s-11.4-25.5-25.5-25.5-25.5,11.4-25.5,25.5,11.4,25.5,25.5,25.5Zm0-32.3c3.7,0,6.8,3,6.8,6.8s-3,6.8-6.8,6.8-6.8-3-6.8-6.8,3-6.8,6.8-6.8Z"/><path class="cls-1" d="m434.8,177.5c14,0,25.5-11.4,25.5-25.5s-11.4-25.5-25.5-25.5-25.5,11.4-25.5,25.5,11.4,25.5,25.5,25.5Zm0-32.3c3.7,0,6.8,3,6.8,6.8s-3,6.8-6.8,6.8-6.8-3-6.8-6.8,3-6.8,6.8-6.8Z"/><path class="cls-1" d="m319.2,177.5c14,0,25.5-11.4,25.5-25.5s-11.4-25.5-25.5-25.5-25.5,11.4-25.5,25.5,11.4,25.5,25.5,25.5Zm0-32.3c3.7,0,6.8,3,6.8,6.8s-3,6.8-6.8,6.8-6.8-3-6.8-6.8,3-6.8,6.8-6.8Z"/><path class="cls-1" d="m422.3,307.1c5.2,0,9.4-4.2,9.4-9.4v-18.8c0-5.2-4.2-9.4-9.4-9.4s-9.4,4.2-9.4,9.4v18.8c0,5.2,4.2,9.4,9.4,9.4Z"/><path class="cls-1" d="m436,317.8h-27.3c-5.2,0-9.4,4.2-9.4,9.4s4.2,9.4,9.4,9.4h27.3c5.2,0,9.3-4.2,9.3-9.4s-4.2-9.4-9.3-9.4Z"/><path class="cls-1" d="m216.1,307.1c5.2,0,9.4-4.2,9.4-9.4v-18.8c0-5.2-4.2-9.4-9.4-9.4s-9.4,4.2-9.4,9.4v18.8c0,5.2,4.2,9.4,9.4,9.4Z"/><path class="cls-1" d="m229.7,317.8h-27.3c-5.2,0-9.4,4.2-9.4,9.4s4.2,9.4,9.4,9.4h27.3c5.2,0,9.4-4.2,9.4-9.4s-4.2-9.4-9.4-9.4Z"/><path class="cls-1" d="m343.8,310.8c-3.9-3.4-9.8-3-13.2.9-2.8,3.2-6.9,5-11.4,5s-8.6-1.8-11.4-5c-3.4-3.9-9.3-4.3-13.2-.9-3.9,3.4-4.3,9.3-.9,13.2,6.3,7.2,15.6,11.4,25.5,11.4s19.2-4.1,25.5-11.4c3.4-3.9,3-9.8-.9-13.2Z"/><path class="cls-1" d="m626.7,9.9c-16.3-15.3-43.2-12.5-55.9,5.9,0,0-61.2,89.5-62.4,91.5C465.7,44.5,395,7,319.2,7s-48,3.8-70.9,11.2c-4.9,1.6-7.6,6.9-6,11.8,1.6,4.9,6.9,7.6,11.8,6,21-6.8,42.9-10.3,65.1-10.3,63.7,0,123.4,28.8,163.1,77.8H156.1c4.6-5.7,9.5-11.1,14.7-16.3,14.2-14.2,30.3-26.3,47.9-35.9,4.5-2.5,6.2-8.2,3.7-12.7s-8.2-6.2-12.7-3.7c-19.2,10.5-36.7,23.6-52.2,39.1s-19.5,21.4-27.6,33.3c-1.3-2-62.4-91.5-62.4-91.5C54.9-2.6,28-5.4,11.7,9.9-2.1,22.9-3.9,44.1,7.5,59.2c4.4,5.8,9.4,12.7,14.8,20.3-10,26.7-9.9,56.2-.2,82.6-10.6,26.5-8.4,56,5.2,80.3-4.2,41.5,11.3,82,42,110-12,32.7-14.8,83.2,6.9,124.1,18,34,50.4,57.2,94,67.4-2.3,12.7-3.6,26.5-3.6,41.3s4.2,9.4,9.4,9.4h286.4c5.2,0,9.3-4.2,9.3-9.4,0-14.8-1.4-28.6-3.6-41.3,21-4.9,39.3-12.7,54.7-23.3,4.3-2.9,5.3-8.8,2.4-13-2.9-4.2-8.8-5.3-13-2.4-13.4,9.2-29.5,16.1-48.1,20.4-6.4-24.1-16.8-47.1-31-67.6-4.9-7.1-9.6-12.9-13.4-17.2,15.1-7.4,29.5-16.5,42.8-27.3,7-5.7,13.7-11.7,20-18.2,1.8,15.6,5.1,26,11.5,35.6,6.4,9.7,16.5,21.2,29.5,15.7h0c10.3-4.5,10.9-16.9,11.9-26.6,1.3-12.4,3.2-27.9,6.1-44.8l12.2-10c9.2,30.5,11,79.2-16.8,116.3-3.1,4.1-2.3,10,1.9,13.1,4.1,3.1,10,2.3,13.1-1.9,16.1-21.4,25.2-48.5,26.5-78.4.9-21.6-2.4-43.8-9.2-62.1,30.7-28,46.2-68.5,42.1-110,13.6-24.3,15.8-53.8,5.2-80.3,9.7-26.4,9.9-55.9-.2-82.6,5.4-7.6,10.4-14.5,14.8-20.3,11.4-15.1,9.6-36.3-4.2-49.3l-.2.2Zm-170.5,384.5c-16.8,14.5-35.6,26.2-56.2,34.8-51.2,21.4-110.5,21.4-161.7,0h-.1s-.2,0-.3-.1c-28-11.8-53.2-29.6-73.8-52.1-.3-.3-6.2-7.2-6.6-7.7.3-11.3.4-24.6.4-41.1,0-26.5-.2-51.3,5.7-77.4,2-9.1,4.1-18.2,5.2-27.5.1-.1.2-.3.3-.4,11.8-13.4,29.2-21.2,47.1-21.2,26.1,0,50.4,17,59.2,41.6,3.3,9.2,3.7,18.6,3.7,28.3s9.4,20.8,20.9,20.8h38.7c11.5,0,20.8-9.4,20.8-20.8v-6c0-35.1,28.1-63.8,62.6-63.9h.2c18,0,35.7,8,47.4,21.6,1.2,9.5,3.2,18.6,5.2,27.5,5.1,22.5,5.7,45.5,5.7,68.4v.6c0,20.5,0,36.3.4,49.4-.3.4-16.1,17.8-24.6,25.1h-.2Zm-137.1,69.6c11.3,0,22.7-.8,33.9-2.5-4.4,10.3-13.9,25.3-33.9,38.9-20-13.6-29.5-28.6-33.9-38.9.4,0,23,2.5,33.9,2.5ZM495.8,122.2c.5.8,1,1.6,1.5,2.4-3.2,5.3-6.4,10.9-9.5,16.7-9.2,17.7-16.6,36.7-18.6,56.6-13.7-9.7-30.6-15-47.4-14.9-35,.1-64.9,22.8-76.3,54.3-4,11-4.9,22.5-4.9,34.3s-1,2.1-2.2,2.1h-38.7c-1.2,0-2.1-1-2.1-2.1,0-10.4-.5-20.8-3.5-30.8-10.3-34-42.6-57.8-78-57.8s-33.4,5.3-47.1,14.9c-1.9-18.1-7.9-35.1-15.6-50.7-3.8-7.7-8-15.2-12.4-22.6.5-.8,1-1.6,1.5-2.4h353.3ZM24.5,23.5c8.1-7.6,21.4-6.2,27.7,2.9,0,0,41.8,60.3,58.4,85.3,19.6,29.6,41.1,62.5,40.3,99.5v.4c-.7,26.3-11.8,51-11.8,77.4s1.9,69.6-1.8,103.9c-1.4,13.3-5.7,25.7-14.8,35.7,0-1.1-.5-5.8-.7-6.9-1.5-14.8-3.7-33.2-7.2-53h0c-2.5-14.4-6.7-29-8.1-43.7-2.4-23.6,1.9-47.1,5.2-70.5v-.4c4.2-30.1-1.4-52.7-13.4-80.3-21.5-50.1-55.4-98.6-75.9-125.8-5.6-7.5-4.7-18,2.1-24.4h0Zm63.4,174.3c4.4,11.8,7.9,24,7.2,36.7,0-.1-.2-.2-.3-.3-5.4-6.4-10.7-12.9-15.9-19.4-12.3-15.4-26-31.1-34.9-48.8h0c-10.3-20.5-13.2-44.1-8.2-66.5,20.4,31,39.2,63.5,52.1,98.4h0Zm-50.7-7.3c11.5,16,23.5,31.6,36,46.9,6.1,7.4,12.3,14.7,18.7,21.9,0,0,0,.2.2.2,0,.7-.9,6-1.2,7.9-.8,5.7-1.7,11.5-2.3,17.5l-34.4-37s-6.5-7.8-9.1-12.1c-8.9-14.7-12.6-31.9-10.3-48.8h0c.8,1.2,1.5,2.3,2.3,3.4h0Zm8.6,75.8l41.3,44.4c0,2.8,0,5.7.3,8.6.5,9.1,1.9,18.2,3.9,27.2l-4.8-4c-23.5-19.4-37.9-46.7-40.6-76.3h-.1Zm47,201.5c-17.6-33.3-16.8-73.9-8-102.5l4.9,4,7.3,6c2.9,16.9,4.8,32.5,6.1,44.9,1.2,11.7,2.6,26.4,17.3,27.8h0c7.6.7,13-3.3,17.7-8.7,11-12.7,16-27.4,17.9-44,18.4,18.8,39.6,34.1,62.8,45.4-12.4,14.1-33.3,42.6-44.4,84.9-38.5-9-65.9-28.4-81.5-57.9h0Zm132.6-5.3v113.4h-39.8c2.3-54.3,24.2-92.8,39.8-113.4h0Zm18.7-11.1c6.6,2.3,13.3,4.3,20.1,5.9,3.3,12.6,14.2,40.1,50.1,62.2,3,1.8,6.8,1.8,9.8,0,35.9-22,46.8-49.5,50.1-62.1,6.8-1.7,13.5-3.7,20.1-6v124.5h-150.2v-124.5h0Zm169,124.5v-113.4c15.5,20.7,37.5,59.1,39.8,113.4h-39.8Zm138.9-233.4l-4.8,4c.2-.7.3-1.3.4-2,2.5-11.1,3.7-22.4,3.7-33.8l41.3-44.4c-2.8,29.5-17.1,56.9-40.6,76.3h0Zm51.7-155.5c2.2,16.9-1.4,34.1-10.3,48.7-2.6,4.3-5.7,8.4-9.1,12.1l-34.4,37c-.4-4-1-8-1.5-11.9,0,0-1.8-12-2-13.5,0,0,2.5-2.8,3.6-4.1,16.5-18.8,32-38.5,46.8-58.6,2.3-3.2,4.7-6.4,6.9-9.6h0c0-.1,0-.1,0-.1Zm-1.1-87.7c5,22.4,2.1,46-8.2,66.5h0c-11.7,22.6-29.3,42.3-45.4,61.8-.4.4-4,4.8-5.4,6.5,0,.1-.2.2-.3.3-.5-8.3,0-15.9,2.3-22.2,1.9-5.2,3.4-10.5,5.4-15.7,12.9-34.5,33.3-69.5,51.6-97.3h0Zm13.4-51.4c-20.5,27.2-54.4,75.8-76.1,126-5.3,12.3-10.6,24.9-13.7,38-4.1,17.2-.7,35.3,1.9,52.5,3,20,5.8,40.3,3.7,60.6-1.5,14.9-5.6,29.3-8.2,44-3.4,19.6-5.7,37.8-7.1,52.4-.2,2.4-.5,4.7-.7,7.1-8.3-9.2-12.5-17.1-14.6-34.4-4.2-34.8-1.9-70.3-1.9-105.3h0c0-25.6-10.3-49.6-11.7-74.9-2.1-38,20.2-72.1,40.2-102.4,16.5-25,58.4-85.3,58.4-85.3,6.3-9.1,19.6-10.5,27.7-2.9,6.8,6.4,7.7,16.9,2.1,24.4v.2Z"/></svg>