<?xml version="1.0" encoding="UTF-8"?><svg id="Layer_1" xmlns="http://www.w3.org/2000/svg" viewBox="0 0 565.6 666.8"><defs><style>.cls-1{fill:#d9ba6c;stroke-width:0px;}</style></defs><path class="cls-1" d="m181.1,304.5c5.2,0,9.4-4.2,9.4-9.4v-20.9c0-5.2-4.2-9.4-9.4-9.4s-9.4,4.2-9.4,9.4v20.9c0,5.2,4.2,9.4,9.4,9.4Z"/><path class="cls-1" d="m384.3,304.5c5.2,0,9.4-4.2,9.4-9.4v-20.9c0-5.2-4.2-9.4-9.4-9.4s-9.4,4.2-9.4,9.4v20.9c0,5.2,4.2,9.4,9.4,9.4Z"/><path class="cls-1" d="m314,352.6c-3.9-3.4-9.8-3-13.2.9-4.4,5-11,7.9-18,7.9s-13.6-2.9-18-7.9c-3.4-3.9-9.3-4.3-13.2-.9s-4.3,9.3-.9,13.2c7.9,9.1,19.7,14.3,32.1,14.3s24.2-5.2,32.1-14.3c3.4-3.9,3-9.8-.9-13.2Z"/><path class="cls-1" d="m540.2,40c-14.9-10.2-35.6-7.8-48,5.3-12.6,13.3-29,22.1-37.5,26.1-9-9.2-19.1-18.1-30.5-26.5-4.2-3.1-10-2.2-13.1,2s-2.2,10,2,13.1c43.8,32.1,67.6,75.1,77.3,96h-165.5V22.4c20,3.6,39,9.8,56.7,18.5,4.6,2.3,10.3.4,12.5-4.3,2.3-4.6.4-10.3-4.3-12.5-22.6-11.2-47.2-18.5-73.1-21.9-22.2-2.9-46-2.9-68.2,0-63.7,8.3-108.5,39.3-137.9,69.3-8.5-4-25-12.8-37.6-26.2-12.4-13.1-33-15.4-48-5.3-10.5,7.1-16.5,18.9-16.3,31.5.9,48.1,17.3,75.4,32.6,90.5-9.2,6.2-15.3,16.8-15.3,28.7s10.7,29.3,25.3,33.4v10.7c-28.9,4.5-51.3,29.7-51.3,60.1s27.3,60.9,60.8,60.9,3.2,0,4.8-.2c20.6,56.1,62.4,102,115.6,128.1-17.6,20-52.8,69.4-52.8,146.3s4.2,9.4,9.4,9.4h289.8c5.2,0,9.4-4.2,9.4-9.4,0-76.9-35.2-126.3-52.8-146.3,53.2-26.1,95-72,115.7-128.1,1.6.1,3.2.2,4.8.2,33.6,0,60.9-27.3,60.9-60.9s-22.4-55.6-51.5-60.1v-10.7c14.6-4.1,25.3-17.5,25.3-33.4s-6.1-22.5-15.3-28.7c15.3-15.1,31.7-42.4,32.6-90.5.2-12.6-5.8-24.4-16.3-31.5h-.2Zm-234-20.2v136.2h-47.1V19.8c15.4-1.5,31.6-1.5,47.1,0ZM35.7,55.5c7.4-5.1,17.7-3.9,23.8,2.7,12.5,13.2,27.7,22.4,38.1,27.7-1,1.2-2,2.4-3,3.6-19.9,24.5-31.9,47.8-37.9,61.2-13.1-11.8-28.3-35-29.2-79.5-.1-6.3,2.9-12.1,8.1-15.6h.1Zm24,281.5c-22.7-.6-40.9-19.3-40.9-42.1s14-36.8,32.7-41.1v22.1c0,20.6,2.7,41.2,8.2,61.1Zm239.8,200.1c1.8,4.7,2.7,9.7,2.7,14.9,0,13.7-6.6,26.5-17.4,33.5-1.2.8-2.9.8-4.1,0-10.7-7-17.4-19.9-17.4-33.5s.9-10.2,2.7-14.9c5.2,2.2,10.9,3.4,16.7,3.4s11.5-1.2,16.7-3.4h0Zm-2.4-20.1c-4.1,3.1-9.2,4.8-14.3,4.8s-10.2-1.7-14.3-4.8c-3.7-2.8-6.5-6.5-8.2-10.9,1.5.1,3,.3,4.4.4,12,.9,24.1.9,36.1,0,1.5-.1,3-.2,4.4-.4-1.6,4.4-4.5,8.1-8.2,10.9h.1Zm-109.2-11.5v115.2h-40.5c2.3-55.3,24.7-94.3,40.5-115.2Zm18.7-11.1c11,3.9,22.3,6.8,33.8,9,1.1,8.5,4.7,16.2,10.1,22.4-3.9,8.1-5.9,17-5.9,26.2,0,20.2,9.7,38.6,25.8,49.2,3.7,2.4,7.9,3.7,12.3,3.7s8.7-1.3,12.3-3.7c16.2-10.6,25.8-29,25.8-49.2s-2-18.1-5.9-26.2c5.4-6.2,9-13.9,10.1-22.4,11.5-2.1,22.8-5.1,33.8-9v126.3h-152.2v-126.3h0Zm171,126.3v-115.2c15.8,20.9,38.1,59.9,40.5,115.2h-40.5Zm-67.6-134c-18.1,2.3-36.4,2.3-54.5,0-93.6-12-168.4-85.3-182.7-178.2-3.2-20.9-2.5-43.4-2.5-65.1v-18h29.2c-3.8,20-5.8,43.3-5.8,69.5s4.3,37.3,12.8,51.2c12.1,19.9,33.4,31.8,57,31.8s38.3-10.4,54.3-23.1c15.3-12.1,29.7-23.5,64.9-23.5s49.6,11.4,64.9,23.5c16.1,12.8,33.1,23.1,54.3,23.1s45-11.9,57.1-31.8c8.5-14,12.8-31.2,12.8-51.2s-1.9-49.5-5.8-69.5h29.2v18c0,21.7.8,43.5-2.5,65.1-14.4,92.9-89.1,166.1-182.7,178.2Zm143-191.8c0,16.6-3.4,30.5-10,41.5-8.6,14.2-24,22.8-41,22.8s-30-9-42.7-19.1c-16.3-12.9-34.8-27.6-76.5-27.6s-60.2,14.6-76.5,27.6c-12.7,10.1-25.8,19.1-42.7,19.1s-32.4-8.5-41-22.8c-6.7-11-10-25-10-41.5,0-31.7,3.1-54.5,6.1-69.5h328.2c3.1,15,6.1,37.8,6.1,69.5Zm93.7,0c0,22.8-18.2,41.5-40.9,42.1.2-.7.4-1.4.5-2.2,5.1-19.2,7.6-39.1,7.6-58.9v-22.1c18.7,4.3,32.8,21.1,32.8,41.1Zm-42.1-88.2H60.8c-8.8,0-15.9-7.2-15.9-15.9s7.2-15.9,15.9-15.9h59.6c5.2,0,9.4-4.2,9.4-9.4s-4.2-9.4-9.4-9.4h-45.6c6.9-15,21.2-41.5,44.9-67,0,0,.2-.2.2-.3,33.2-35.8,73.6-58.1,120.4-66.4v133.6h-82.5c-5.2,0-9.4,4.2-9.4,9.4s4.2,9.4,9.4,9.4h346.8c8.8,0,15.9,7.2,15.9,15.9s-7.1,15.9-15.9,15.9h0Zm4.1-56c-6.3-14.1-19.2-39.1-40.8-64.8,10.4-5.3,25.6-14.5,38-27.7,6.2-6.5,16.4-7.7,23.8-2.7,5.2,3.5,8.2,9.4,8.1,15.6-.9,44.5-16,67.7-29.1,79.5h0Z"/></svg>