<?xml version="1.0" encoding="UTF-8"?><svg id="Layer_1" xmlns="http://www.w3.org/2000/svg" viewBox="0 0 638.6 638.3"><defs><style>.cls-1{fill:#d9ba6c;stroke-width:0px;}</style></defs><path class="cls-1" d="m435.6,153.2c-13.3,0-25.8,5.2-35.1,14.6-19.1,19.1-19.2,51.1,0,70.3s21.9,14.6,35.1,14.6,25.8-5.2,35.1-14.6c19.4-19.4,19.4-50.9,0-70.3s-21.9-14.6-35.1-14.6Zm21.9,71.6c-11.9,11.9-31.9,11.9-43.8,0s-11.9-31.9,0-43.8c11.9-12,31.9-11.9,43.8,0s12.1,31.7,0,43.8Z"/><path class="cls-1" d="m625.6,222.2c7.8-3.2,12.9-10.8,12.9-19.3s-5.1-16-12.9-19.3l-36-14.9c-4-18.1-11.1-35.1-20.9-50.6l14.9-36c3.2-7.8,1.5-16.8-4.5-22.7-3.9-3.9-9.2-6.1-14.8-6.1s-5.4.5-8,1.6l-36,14.9c-15.4-9.9-32.5-16.9-50.6-20.9l-14.9-36c-3.2-7.8-10.8-12.9-19.3-12.9s-16,5.1-19.3,12.9l-14.9,36c-18.1,4-35.1,11.1-50.6,20.9l-36-14.9c-7.7-3.2-16.8-1.4-22.7,4.5s-7.8,14.9-4.5,22.7l14.9,36c-9.8,15.4-16.9,32.5-20.9,50.6l-36,14.9c-7.8,3.2-12.9,10.8-12.9,19.3s5.1,16,12.9,19.3l36,14.9c2.4,10.7,5.8,21.1,10.3,31l-43.2,43.2c-6.3,6.3-8,15.5-5.1,23.4l-107.1,107.1c-2.5-1.1-5.2-1.7-8.1-1.7-5.5,0-10.6,2.1-14.5,6l-104.4,104.3c-12.6,12.6-12.6,33,0,45.6,0,0,32.9,32.9,33,33,12.4,12.4,33.1,12.4,45.6,0l28.2-28.2c3.7-3.7,3.7-9.6,0-13.2s-9.6-3.7-13.2,0l-28.2,28.2c-5.2,5.2-13.9,5.2-19.1,0l-33-33c-5.3-5.3-5.3-13.8,0-19.1,0,0,104.2-104.2,104.3-104.3.7-.7,1.9-.7,2.6,0l49.5,49.5c.7.7.7,1.9,0,2.6l-49.7,49.7c-3.7,3.7-3.7,9.6,0,13.2s9.6,3.7,13.2,0l49.7-49.7c6.1-6.1,7.5-15.1,4.3-22.6l107.1-107.1c2.4.9,5,1.4,7.6,1.4,5.9,0,11.5-2.3,15.7-6.5l43.2-43.2c9.9,4.5,20.3,8,31,10.3l14.9,36c3.2,7.8,10.8,12.9,19.3,12.9s16-5.1,19.3-12.9l14.9-36c18.1-4,35.1-11.1,50.6-20.9l36,14.9c2.5,1.1,5.2,1.6,8,1.6,14.7,0,24.9-15.4,19.3-28.9l-14.9-36c9.9-15.4,16.9-32.5,20.9-50.6l36-14.9h0Zm-5.9-19.3c0,.8-.4,1.6-1.3,2l-40.6,16.8h0c-13.7,5.7-29.5-3.4-29.5-18.8s15.3-24.8,28.8-19.2c0,0,41.4,17.2,41.5,17.2.9.4,1.3,1.2,1.3,2h-.1Zm-81.9-120.2l25.6-10.6c.8-.3,1.8,0,2.4.5.6.6.8,1.6.5,2.4l-10.6,25.6h0c-5.4-6.4-11.3-12.3-17.6-17.7h0c0,0-.1-.2-.1-.2Zm-104.3-62.8c.7-1.8,3.3-1.8,4,0l17.2,41.5c2.6,6.3,1.9,13.8-1.9,19.5-3.9,5.9-10.2,9.2-17.3,9.2-14.6,0-24.8-15.3-19.2-28.8,0,0,17.1-41.3,17.2-41.5h0Zm-118.2,80.6l-10.6-25.6c-.3-.8-.2-1.7.5-2.4s1.6-.8,2.4-.5l25.6,10.6h-.1c-3.2,2.8-6.2,5.6-9.2,8.6s-5.8,6-8.4,9.2h-.1c0,0,0,.1,0,.1Zm-64.1,102.3c0-.9.5-1.7,1.3-2l41.5-17.2c13.5-5.6,28.8,4.6,28.8,19.2s-9.6,20.8-20.8,20.8-6.1-.7-8.9-2l-40.6-16.8c-.8-.3-1.3-1.1-1.3-2h0Zm81.9,120.2l-25.6,10.6c-1.8.7-3.6-1.1-2.8-2.8l10.6-25.6h.1c2.7,3.3,5.5,6.3,8.5,9.3s6,5.8,9.2,8.5h.1c0,.1-.1,0-.1,0Zm-78,26.3l33.8,33.8-104.6,104.6-33.8-33.8,104.6-104.6h0Zm58.7,27.2c-1.4,1.4-3.6,1.4-5,0l-47.1-47.1c-1.4-1.4-1.4-3.6,0-5l39.1-39.1c.5.8.9,1.5,1.4,2.3l-14.9,36c-3.2,7.8-1.5,16.7,4.5,22.7s15,7.7,22.7,4.5l36-14.9c.7.5,1.5,1,2.3,1.4l-39.1,39.1h.1Zm123.6,9.2c-.7,1.8-3.3,1.8-4,0,0,0-16.6-40-16.6-40.1-5.3-12.7,1.4-28.2,16-30,15.6-1.9,27.8,14.2,21.8,28.6,0,0-17.1,41.2-17.2,41.4h0Zm118.2-80.6s10.6,25.5,10.6,25.6c.7,1.7-1.1,3.6-2.8,2.8l-25.6-10.6h0c6.3-5.5,12.2-11.4,17.6-17.7h0c0-.1.1,0,.1,0Zm-5.2-23.9h0c-9.8,14.2-22.2,26.7-36.4,36.4h0c-11.9,8.1-25,14.4-38.9,18.5,0-21.5-18-39.4-39.5-39.4s-39.2,17.7-39.5,38.9v.6c-14.5-4.3-28-10.9-40.4-19.5-13.2-9.3-24.7-20.8-34-34-8.6-12.3-15.3-26-19.5-40.4h1.9c20.7-1.1,37.5-18.7,37.5-39.5s-18-39.5-39.4-39.5c4.1-13.9,10.3-27,18.4-38.9h0c9.7-14.4,22.2-26.7,36.4-36.5h0c11.9-8.1,25-14.4,38.9-18.5,0,21.5,18,39.4,39.5,39.4s39.5-18,39.5-39.4c13.9,4.1,27,10.3,38.9,18.5h0c14.2,9.8,26.7,22.1,36.4,36.4h0c8.1,12,14.4,25.1,18.4,39h-1c-18.9.5-35.5,15.8-38,34.5-3.1,22.9,15.9,44.6,39.1,44.6-4.1,13.9-10.3,27-18.5,38.9h.2Z"/></svg>