<?xml version="1.0" encoding="UTF-8"?><svg id="Layer_1" xmlns="http://www.w3.org/2000/svg" viewBox="0 0 639.5 631.3"><defs><style>.cls-1{fill:#d9ba6c;stroke-width:0px;}</style></defs><path class="cls-1" d="m427.8,69.3c5.2,0,9.4-4.2,9.4-9.4v-11.5l9.6-3.4c4.9-1.7,7.4-7.1,5.7-11.9s-7.1-7.4-11.9-5.7l-31.8,11.2c-4.9,1.7-7.4,7.1-5.7,11.9,1.7,4.8,7.2,7.4,11.9,5.7l3.4-1.2v4.9c0,5.2,4.2,9.4,9.4,9.4Z"/><path class="cls-1" d="m341.9,31.5l-12.8,12.8c-3.7,3.7-3.7,9.6,0,13.2,3.5,3.5,9.6,3.6,13.2,0l12.8-12.8c3.7-3.7,3.7-9.6,0-13.2-3.7-3.7-9.6-3.7-13.2,0Z"/><path class="cls-1" d="m639.5,367.1c0-3.4-1.9-6.6-4.9-8.2-20.4-11.1-43.4-17-66.5-17s-2.8,0-4.1,0c1.2-5.3,2.3-10.7,3.3-16l27.7,6c5,1.1,10.1-2.2,11.1-7.2,6.3-29-6.8-58-32-72.6,0-7.5-.3-15-.7-22.3h34.4c5.2,0,9.4-4.2,9.4-9.4,0-33.5-24.5-61.6-56.9-66.7-1.6-5.6-3.4-11.2-5.4-16.7l35-21.1c4.4-2.6,5.8-8.5,3.2-12.9-12.3-20.5-34-32.7-57.9-32.7s-7.9.3-11.7,1c-2.4-3.8-4.8-7.6-7.3-11.3h68.9c5.2,0,9.4-4.2,9.4-9.4s0-.5,0-.8c-.4-27.5-22.9-49.8-50.6-49.8h-186.9c-40.3,0-73,32.7-73.1,73,0,1.1.2,2.3.6,3.4l9.4,25.3c7,18.9,34.6,18.9,41.6,0l7.1-19.2h41.1c.2,0,.4.2.3.4,0,0-54.7,60-54.8,60.1-3.4,3.8-3.2,9.8.6,13.2,26.2,23.8,68.1,21.8,92-4.3l7.1-7.8c7.1,12.9,12.8,26.5,17.1,40.4,1.5,4.9,6.7,7.7,11.7,6.2,4.9-1.5,7.7-6.7,6.2-11.7-6-19.5-14.5-38.2-25.4-55.6-3.3-5.2-10.7-5.9-14.9-1.3l-15.7,17.2c-14.6,16-39.3,19.7-57.9,8.7,0,0,47.7-52.3,47.8-52.3,11-12,2.2-31.9-14.1-31.9h-80.2c4.4-25.5,26.7-45,53.5-45h113.3c-1.8,4.4-2.5,9.1-2.1,13.8,1.1,13.3,11.6,24.7,24.9,27,15.8,21.4,29,44.8,39,69.5,16.5,40.9,24.2,85.5,23.5,129.8-.5,28.3-4.3,57.2-11,85-.4,0-9.9,2-14.1,3.2-14.9,4.2-28.1,12.5-42.4,18.1-12,4.7-24.8,7.5-37.7,8.1,7-17.2,17.1-47,21.7-83.3,3.2-25.4,3.3-50,.1-73.2-.7-5.1-5.4-8.7-10.5-8s-8.7,5.4-8,10.5c2.9,21.6,2.9,44.6-.1,68.3-5,39.5-17.3,71.4-23.1,84.9-15.2-1.8-30.1-6.5-43.6-13.8-1.2-.6-2.4-1.3-3.6-1.9-3.1-24.8-11.3-48.6-24-69.8,10-12.1,15.5-27.1,15.5-43s-4.2-9.4-9.4-9.4h-53.9c-20.8-15.3-44.6-25.8-69.7-31v-35c0-5.2-4.2-9.4-9.4-9.4-28.6,0-54,18.1-63.5,44.6-25.1,5.3-48.3,16-68.5,30.8h-54.6c-5.2,0-9.4,4.2-9.4,9.4,0,16,5.5,31,15.5,43.1-11.1,18.5-19,39.1-22.8,61.3-8.4,2.7-16.4,6.1-24.2,10.3-3,1.6-4.9,4.8-4.9,8.2v255c0,5.2,4.2,9.4,9.4,9.4h620.7c5.2,0,9.4-4.2,9.4-9.4v-255,.2ZM322.3,82.6l-4.7,12.7c-1.1,2.9-5.4,2.9-6.5,0l-4.7-12.7h15.9Zm266.5,228.9l-18.6-4c.4-3,2.7-24.7,3.2-32.6,10.1,9.4,15.8,22.7,15.4,36.6h0Zm-23.4-137.2c16.3,5.6,28.6,19.7,31.9,36.8h-25.7v-.3c-1.4-12.3-3.5-24.5-6.2-36.4h0Zm-30.4-85.1c14.1,0,27.1,5.9,36.3,16l-23.4,14.1c-4.3-10.2-9.1-20.3-14.3-30.1h1.4Zm39-47.8h-76.3c-6.2,0-11.2-5-11.2-11.2s5-11.2,11.2-11.2h45.8c14.3,0,26.4,9.5,30.4,22.5h0Zm44.4,480c-37.9-14.7-81.2-11.9-116.9,7.5-17.6,9.6-37.5,14.7-57.6,14.7-31.1,0-55-17-84-25.7-35.4-10.7-74.3-6.7-106.7,11-35.5,19.4-79.6,19.4-115.2,0-36.4-19.9-80.8-22.3-119.3-6.6v-64.5c.3-.2.7-.3,1-.5,34.5-16.4,75.7-15.3,109.2,3,41.1,22.4,92,22.4,133.1,0,35.6-19.4,79.6-19.4,115.2,0,41.1,22.4,92,22.4,133.1,0,33.9-18.5,75.5-19.4,110.3-2.5v64.5c-.4-.2-2-.8-2.4-.9h.2ZM354.6,253.6c-1.2,6.2-3.6,12-7,17.3h0c-4.6-6.1-9.6-11.9-14.9-17.2h22-.1Zm-163.9-52.8c7.1-11.2,18.6-19.1,31.8-21.7v21.9c-10.6-.9-21.2-1.1-31.8-.2Zm-112.7,52.8c-5.4,5.4-10.3,11.2-15,17.3-3.4-5.2-5.8-11.1-7-17.3h22Zm-28.8,90.2c14.3-63.4,66.3-111.9,129.8-122.6,61.7-10.4,125.6,17.7,160,69.9,11.5,17.4,19.5,37,23.5,57.6-13.8-4.4-28.2-6.7-42.7-6.7s-28.3,2.2-41.8,6.4c-12.2-28.9-40.8-48.3-72.7-48.3s-15.4,1.1-22.8,3.4c-5,1.5-7.8,6.7-6.3,11.7s6.7,7.7,11.7,6.2c5.7-1.7,11.5-2.6,17.4-2.6,24.1,0,45.8,14.6,55.2,36.4-2.5,1.2-4.9,2.4-7.3,3.7-17.6,9.6-37.5,14.7-57.6,14.7s-33.2-3.5-48.4-10.2c2.4-8.8,6.7-17,12.8-23.9,3.4-3.9,3-9.8-.9-13.2-3.9-3.4-9.8-3-13.2.9-7.1,8.2-12.5,17.6-15.7,27.8,0-.3-7.8-3.3-7.9-3.4-23.1-9.1-48.6-11.8-73.1-7.8h0Zm-30.4,29.1c35.8-17.4,77.5-14.5,112.4,3.7,40.5,21,90.9,20.7,130.9-1.1,28.3-15.4,62.4-18.8,93.2-9.3.2,0,.4.1.6.2,27.3,8.6,49.4,24.4,79.1,25.8h0c24.9,1.6,50.2-3.8,72.4-15.2,35.8-18.4,76.4-21.9,113.1-4v64.5c-38.4-15.8-82.8-13.3-119.3,6.6-35.6,19.4-79.6,19.4-115.2,0-41.1-22.4-92-22.4-133.1,0-35.6,19.4-79.6,19.4-115.2,0-36.4-19.9-80.9-22.3-119.3-6.6v-64.5h.4Zm0,239.9v-69.9c.3-.2.7-.3,1-.5,34.5-16.4,75.7-15.3,109.3,3,41.1,22.4,92,22.4,133.1,0,35.5-19.3,79.7-19.4,115.2,0,41.1,22.4,92,22.4,133.1,0,17.4-9.5,37.6-14.7,57.6-14.7s36.4,4.2,52.7,12.2v69.9s-602,0-602,0Z"/></svg>