<?xml version="1.0" encoding="UTF-8"?><svg id="Layer_1" xmlns="http://www.w3.org/2000/svg" viewBox="0 0 591.1 638.3"><defs><style>.cls-1{fill:#d9ba6c;stroke-width:0px;}</style></defs><path class="cls-1" d="m390.6,328.4c12,0,24-4.1,33.6-12.3,0,0,55.4-47.6,55.4-47.7,28.5-24.5,30.2-69.6,3.6-96.2l-17-17c-26.6-26.6-71.6-24.9-96.2,3.6l-47.6,55.4c-17.5,20.3-16.3,51.1,2.6,70.1l29.2,29.2c9.9,9.9,23.2,14.9,36.5,14.9h-.1Zm-54.1-102s47.6-55.3,47.7-55.4c17.6-20.4,49.7-21.6,68.8-2.6l17,17c19.1,19.1,17.8,51.2-2.6,68.8,0,0-55.3,47.6-55.4,47.6-12.9,11.1-32.6,10.3-44.6-1.7l-29.2-29.2c-12.1-12.1-12.8-31.7-1.7-44.6h0Z"/><path class="cls-1" d="m8.9,616l13.5,13.5c11.4,11.4,30.2,11.8,42.1.8l69.5-64.3c3.8-3.5,4-9.4.5-13.2s-9.4-4-13.2-.5l-69.5,64.3c-4.6,4.3-11.7,4.1-16.1-.3l-13.5-13.5c-4.4-4.4-4.6-11.5-.3-16.1l252.5-273c4.3,5.6,9,11,14,16.1,11.9,12.1,25.6,22.6,40.4,30.8l-180,166.4c-3.8,3.5-4,9.4-.5,13.2s9.4,4,13.2.5l185.4-171.4c21.1,8.7,44,13.3,67.6,13.3,47.8,0,92.6-18.8,126.2-52.9,67.4-68.6,67.2-180-.5-248.4-2.4-2.4-4.9-4.8-7.5-7.1-9.3-8.4-24.6-4.7-29.1,7-2.5,6.6-11.4,32.1-22.1,25.1-7.4-4.8-14.8-17.9-19.2-34.1-4.7-17.2-5.6-35.8-2.4-49.9,3.3-14.7-12.2-27.2-25.8-20.4-15.2,7.6-37.3,20.7-56.1,40.4-18.7,19.6-30.5,41.7-35.1,65.9-7.4-5.1-17.3-13.3-26.1-25.1-7.1-9.5-20.6-9.2-28.5-1.2-16.9,17.2-29.9,37.3-38.5,59.8-1.9,4.8.5,10.2,5.4,12.1,4.8,1.9,10.2-.5,12.1-5.4,7.8-20.1,19.3-38,34.4-53.4l.4-.4c19.3,25.9,43.4,36.8,44.4,37.2,5.8,2.6,12.6-1.5,13.1-7.8,4.4-57.4,52.7-90.2,81.8-104.9-8,37.1,6.6,87.8,29.8,102.9,8.3,5.4,15.8,4.7,20.6,3.2,11.2-3.6,20.9-15.9,28.9-36.5,2.1,1.9,4.2,3.9,6.2,5.9,60.5,61.1,60.7,160.8.5,222.1-30,30.5-70,47.3-112.8,47.3s-102.4-26.7-131.4-70.2c0-.1-.2-.3-.3-.4-21.2-31.8-30.1-70.5-24.7-109.6.7-5.1-2.9-9.8-8-10.6-5.1-.7-9.8,2.9-10.5,8-5.8,41.4,2.9,82.3,23.9,116.8L8.1,573.9c-11.1,12-10.8,30.5.8,42.1Z"/></svg>