<?xml version="1.0" encoding="UTF-8"?><svg id="Layer_1" xmlns="http://www.w3.org/2000/svg" viewBox="0 0 563.2 639.4"><defs><style>.cls-1{fill:#d9ba6c;stroke-width:0px;}</style></defs><path class="cls-1" d="m215.6,228.2c-5.2,0-9.4,4.2-9.4,9.4v18.2c0,5.2,4.2,9.4,9.4,9.4s9.4-4.2,9.4-9.4v-18.2c0-5.2-4.2-9.4-9.4-9.4Z"/><path class="cls-1" d="m416.9,228.2c-5.2,0-9.4,4.2-9.4,9.4v18.2c0,5.2,4.2,9.4,9.4,9.4s9.4-4.2,9.4-9.4v-18.2c0-5.2-4.2-9.4-9.4-9.4Z"/><path class="cls-1" d="m347.2,247.5c-3.9-3.4-9.8-3-13.2.9-4.3,4.9-10.8,7.8-17.8,7.8s-13.5-2.8-17.8-7.8c-3.4-3.9-9.3-4.3-13.2-.9-3.9,3.4-4.3,9.3-.9,13.2,7.9,9,19.5,14.2,31.9,14.2s24-5.2,31.9-14.2c3.4-3.9,3-9.8-.9-13.2h0Z"/><path class="cls-1" d="m27.7,216c2.7-4.4,1.2-10.2-3.2-12.9-4.4-2.7-10.2-1.2-12.9,3.2-7.6,12.7-11.6,27.2-11.6,42v137.2c0,45,36.6,81.7,81.7,81.7h22.5l-9.8,86.3c-5.1,6.3-18.1,24.4-24.3,49.7-4.4,18.1,9.7,36.2,28.4,36.2h339.6c5.2,0,9.4-4.2,9.4-9.4s-4.2-9.4-9.4-9.4H98.4c-6.8,0-11.7-6.5-10.2-13.1,4.8-19.8,14.8-34.7,19.5-40.9h417c4.7,6.1,14.6,20.9,19.5,40.9,1.6,6.5-3.4,13.1-10.2,13.1h-58.6c-5.2,0-9.4,4.2-9.4,9.4s4.2,9.4,9.4,9.4h58.6c18.7,0,32.7-18.1,28.4-36.2-6.1-25.3-19.2-43.4-24.3-49.7l-46.3-405.3c10-12.4,15.5-27.8,15.5-43.9,0-38.5-31.4-69.9-69.9-69.9s-4.5,0-6.6.3C418.4,13.3,395.4,0,370.5,0s-40.9,9.4-54.3,25.9c-13.3-16.5-33-25.9-54.2-25.9s-47.9,13.3-60.4,34.7c-2.2-.2-4.4-.3-6.6-.3-38.5,0-69.9,31.4-69.9,69.9s5.5,31.5,15.5,43.9l-2.1,18.4h-56.8c-13.8,0-27.6,3.6-39.6,10.3-4.5,2.5-6.1,8.2-3.6,12.7s8.2,6.1,12.7,3.6c9.3-5.2,19.9-7.9,30.5-7.9h54.7l-5,43.9h-49.6c-10.5,0-19.1,8.5-19.1,19v137.2c0,10.5,8.5,19.1,19.1,19.1h29.6l-5,43.9h-24.6c-34.7,0-63-28.2-63-63v-137c0-11.4,3.1-22.6,9-32.3h0Zm113.8,89.6h71l-4.9,67.1h-73.7l7.7-67.1h-.1Zm357.2,67.1h-73.8l-4.9-67.1h71l7.7,67.1h0Zm-97.4-67.1l4.9,67.1h-80.5v-67.1h75.7-.1Zm-94.4,0v67.1h-80.5l4.9-67.1h75.7,0Zm-175.2,85.8h369.1l8,70.2H123.7l8-70.2h0Zm11.9-104.5l8-70.2h329.3l8,70.2H143.6h0Zm95.5-88.9l3.2-43.4h64.7v43.4h-67.9Zm154.4,0h-67.8v-43.4h64.7l3.2,43.4h-.1Zm-234.7-43.4h64.7l-3.2,43.4h-66.5l4.9-43.4h.1Zm253.5,43.4l-3.2-43.4h64.7l5,43.4h-66.5ZM121.5,480.4h78.2l-4.9,67.6h-81l7.7-67.6Zm97,0h88.4v67.6h-93.3l4.9-67.6h0Zm107.1,67.6v-67.6h88.4l4.9,67.6h-93.3,0Zm112.1,0l-4.9-67.6h78.2l7.7,67.6h-81ZM195,53.2c2.4,0,4.9.4,7.3.4,6.3,0,12.1-3.4,15.2-8.8,9.1-16,26.2-26,44.5-26s30.7,7.2,40.5,19.9c3.3,4.3,8.4,6.8,13.8,6.8s10.5-2.5,13.8-6.8c9.8-12.6,24.5-19.9,40.5-19.9s35.5,10,44.5,26c3.1,5.4,8.9,8.8,15.2,8.8s4.8-.4,7.3-.4c28.2,0,51.2,23,51.2,51.2s-3.8,22.6-10.9,31.6H154.7c-7.1-9-10.9-20-10.9-31.6,0-28.2,23-51.2,51.2-51.2Zm-113.3,332.7c-.2,0-.3-.2-.3-.3v-137.2c0-.2,0-.3.3-.3h47.5l-15.7,137.8h-31.8Z"/></svg>