<?xml version="1.0" encoding="UTF-8"?><svg id="Layer_1" xmlns="http://www.w3.org/2000/svg" viewBox="0 0 599 639.3"><defs><style>.cls-1{fill:#d9ba6c;stroke-width:0px;}</style></defs><path class="cls-1" d="m262.9,147.4c5.2,0,9.4-4.2,9.4-9.4v-21.2c10.6-3.2,22.1-8.2,32.3-16.1,4.1-3.2,4.8-9,1.7-13.1-3.2-4.1-9-4.8-13.1-1.7-14.9,11.6-36.1,17.6-54.9,17.6s-9.4,4.2-9.4,9.4,4.2,9.4,9.4,9.4,6.6,0,15.3-1.3v17.1c0,5.2,4.2,9.4,9.4,9.4h-.1Z"/><path class="cls-1" d="m93.7,101.4c-23.1,0-39.6,20.3-47.4,32.3-2.8,4.4-3.2,9.8-.9,14.6,2.3,4.7,6.7,7.8,11.9,8.4,3,.3,6,.5,9,.5,27.4,0,47.6-13.1,57.1-20.8,3.5-2.8,5.5-7.1,5.5-11.6s-2-8.8-5.6-11.7c-9.6-7.8-19.6-11.7-29.7-11.7h.1Zm-27.8,37c6-7.9,16.1-18.3,27.8-18.3s9.2,1.6,14,4.7c-8.7,6.1-23.2,13.8-41.8,13.6Z"/><path class="cls-1" d="m39.8,237.9c8.3,7.2,21.7,3.4,24.9-7.1,4-13,8.7-24.1,13.5-32.6,4.5,8.6,11.9,18.7,23.9,26.1,9.2,5.7,21.5.4,24-10,2.2-9.2,7.1-25.8,15.5-37.6l30.4-9.1c18.8-5.6,39,3.7,46.8,21.8,8.3,19,.3,41.1-18.2,50.3-6.5,3.3-14,6.8-22.4,10.4-8.8-5.6-15.5-15.1-18.1-19.3-4.4-6.9-14.3-8.2-20.3-2.7-8.6,8-13.6,22.9-16.3,34-9.2-6.9-16.1-16.1-19.1-20.6-4.8-7-15.3-7.4-20.6-.7-11.2,14.1-14.8,31.1-16,40.2-2.6,1.5-4.9,3.4-6.7,5.9-3.4,4.7-4.8,10.4-3.8,16,2.9,17.1,12.1,47.7,41.8,60.1,29.3,12.2,70.1,2.7,121.7-28.2-3.5,7.4-7.2,15.8-10.8,25.3-13.1,34.7-27.1,90.3-19.6,158.3.6,5.1,5.2,8.9,10.3,8.3,5.1-.6,8.9-5.2,8.3-10.3-7-64,6.1-116.3,18.3-149,13.3-35.5,28.5-56.1,28.6-56.3,2.8-3.7,2.4-8.8-.8-12.2-3.2-3.3-8.4-3.8-12.1-1.1-77,54.5-116.8,56.1-136.7,47.8-21.3-8.9-28.2-32.5-30.5-45.9-.2-1.4.8-2.6,2.1-2.8,45.6-6.1,90.2-20,131.4-40.6,27.3-13.7,39.1-46.5,26.9-74.5-11.6-26.7-41.5-40.6-69.4-32.2-28.6,8.5-56.4,17.5-86.4,19.9-18.1,1.5-36.3,1.3-54.4-.3-4-.4-7.2-3.8-7.1-7.9.3-37.4,7.2-61.6,20.3-72,15.1-11.9,39.8-6.2,63.7-.7,13.7,3.2,27.9,6.4,40.7,6.4h.2c53.8-1.4,75.3-20.8,94.2-37.9,17.9-16.2,33.4-30.3,76.1-30.3,87.8,0,130.4,43.4,130.8,43.8,3.2,3.4,8.4,3.9,12.2,1.2.2,0,20-14,45.8-27.5,31.2-16.3,57.5-25.2,76.6-25.8-14,48.4-86.7,102.8-109.2,118.7-3.2,2.2-4.6,6.2-3.7,10,13.2,51.2,11.6,99-6.6,148.8-37.2,102.1-11.5,206.7,23.4,305.5h0c2.1,6.1,4.3,12.4,6.6,18.8h-33.7c-31.2-88.6-46.6-156.3-48.3-212.7-.3-9.3-.2-18.5.3-27.4.3-5.2-3.7-9.6-8.8-9.9-5.2-.3-9.6,3.7-9.9,8.8-.5,9.5-.7,19.2-.4,29,1.7,57,16.8,124.7,47.2,212.2h-146.6c-28.8-68.3-38.5-148.1-24.7-204.9l.2-.7c7-28.6,21.2-66.4,48.9-83.5,42.8-26.4,67.1-60.4,72.4-100.9,2.8-21.6,3.3-46.7,22.7-60.8,4.4-3.2,10.7-.6,11.9,4.6,11,51,2.8,73.4-8.5,104.5-6.3,17.3-13.5,36.9-18.2,61.8-1,5.1,2.4,10,7.4,11,5.1,1,10-2.4,11-7.4,4.5-23.4,11.4-42.3,17.4-58.9,11.9-32.7,21.4-58.6,9.2-114.8-3.9-18.3-26.1-26.9-41.2-15.8-23.6,17.3-26.7,46.7-30.2,73.5-4.5,35.2-25.4,63.8-63.6,87.4-26.5,16.4-45.8,48.3-57.2,94.9l-.2.8c-14.2,58.4-5.2,139.1,22.7,209.3h-32.9c-9.5-22.4-16.8-45.2-21.8-67.8-1.1-5.1-6.1-8.3-11.1-7.1-5.1,1.1-8.3,6.1-7.1,11.2,5.6,25.7,14.2,51.6,25.3,77,1.5,3.4,4.9,5.6,8.6,5.6h272.5c6.4,0,11-6.6,8.8-12.6-3.2-8.6-6.2-17.1-9.1-25.3,15.5-13.6,31.7-20.3,40.3-23.2,9-3,13.1-13.9,8.2-22.1-23.4-39.4-62.1-54.4-79.9-59.4-3.8-16.2-6.8-31.4-9-45.7,17.7-12.1,35.4-16.8,44.8-18.6,4.5-.9,8.4-3.7,10.6-7.7,2.2-4.1,2.4-8.8.6-13.1-13.2-31.5-36.4-50.7-55.6-61.9,3.8-17.9,10.1-35,16.3-52.2,14.7-4.8,28.3-5.9,37.5-5.9s30.6,1.7,28.7-16.1c-3.8-35.8-24.2-69.1-52.5-91-1.5-10.9-3.7-22.7-6.9-35.6,89.6-64.6,108.5-112.4,112.5-130.1,2.1-9.4-5.1-18.5-14.7-18.8-45.8-1.5-111.1,38.9-131.5,52.4-15.3-12.9-60.5-44.2-138.5-44.2s-69.6,17.8-88.6,35.1c-18.1,16.4-35.2,31.9-81.9,33.1-10.6,0-23.1-2.9-36.4-6-26.9-6.2-57.3-13.2-79.5,4.2C9.4,89,.4,117.3,0,161.3c0,10.4,6,19.7,15,24.1-.3,11.9,2.8,33.6,24.8,52.6h0Zm118.5,20.1c-5.2,1.9-10.5,3.7-15.7,5.4,1.6-5.9,3.7-11.8,6.2-16.2,2.6,3.4,5.8,7.2,9.6,10.9h-.1Zm-64.2,1.1c3.4,4.3,7.8,9.2,13,13.8-.3,0-13.2,2.7-19.5,3.8,1.2-5.2,3.1-11.5,6.5-17.5h0Zm439.1,302.9c-9.2,3.5-22.8,9.8-36.6,20.5-7.1-21.3-13.7-42.7-19.5-64.3,16.3,6.2,39.9,18.8,56.1,43.8Zm-33.6-147c-9.8,2.2-24.3,6.7-39.6,15.6v-1c-2.2-21.7-2.2-41.5-.1-59.8,14.2,9.4,29.8,23.8,39.8,45.2h0Zm26.8-141.7c-3.1-.2-6.3-.3-9.5-.3-10.3,0-20.4,1.1-30.2,3.2.4-1.2.7-2.5,1.1-3.7,5-17.4,8.4-36.4,7.7-60.5,11.9,12.6,26.8,33.3,30.9,61.3ZM48.4,220.4c-11.6-11.8-14.3-24-14.7-31.7h.3c9.2.6,18.3.6,27.4.6s.2,0,.4,0c-5.6,9.9-10.1,21.1-13.4,31.1h0Zm60.4-14.1c-7.8-5.8-12.5-13.3-15.2-19.2h.4c7.6-.9,15.2-2.1,22.7-3.7-3.5,7.9-6,16-7.8,23h-.1Z"/></svg>