<?xml version="1.0" encoding="UTF-8"?><svg id="Layer_1" xmlns="http://www.w3.org/2000/svg" viewBox="0 0 439.1 510.9"><defs><style>.cls-1{fill:#d9ba6c;stroke-width:0px;}</style></defs><path class="cls-1" d="m438.7,291.8c-.2-4.5-3.3-8.3-7.6-9.3-4.3-1.1-8.8.9-11,4.8-5.5,9.7-28.3,15.1-48.6,16.9,21.6-56.6,13.1-98.8,1.5-125-13.8-31.1-34.9-46.8-35.7-47.4-3.2-2.3-7.5-2.6-10.9-.6s-5.4,5.8-4.9,9.8c2.2,19.3-12.5,28.9-19,32.1-14.5,7.3-37.5,8.1-53.9-7.3-26.5-25-24.2-80.3,6.3-151.9,1.4-3.4.9-7.3-1.4-10.2-2.3-2.9-6-4.2-9.6-3.6-23.9,4.5-49.5,13.7-65.3,23.3-4.7,2.9-6.1,9-3.2,13.7,2.9,4.7,9,6.1,13.7,3.3,9.8-6,24.6-12,40.2-16.4-36.4,96.3-12.7,139,5.6,156.2,23.4,22,55.3,21.2,76.5,10.6,13.5-6.8,23-17.2,27.4-29.6,5.2,6.4,11.1,15,15.9,26,15.9,35.8,13.3,77.3-7.6,123.4-1.4,3.1-1.2,6.7.7,9.5,1.8,2.8,5,4.6,8.4,4.6s15.9,0,33.1-2.8c11.8-2,21.6-4.9,29.4-8.7-4.8,86.4-61,130.5-95.8,149.6-14.5,8-29.9,14.3-45.8,18.8,3.6-2.7,7-5.5,10.2-8.5,16-14.5,27.8-32,35.2-51.8,1.9-5.2-.7-10.9-5.9-12.8s-10.9.7-12.8,5.9c-1.6,4.2-3.4,8.3-5.4,12.2,5.5-25.6-1.5-49.2-20.3-68.2-2-2-4.7-3.1-7.5-2.9-2.8.1-5.4,1.4-7.2,3.5-13.7,16.3-32.4,20.9-47.5,11.6-14-8.6-25.1-31-10.4-65.9,1.7-3.9.6-8.5-2.5-11.3-3.2-2.8-7.8-3.3-11.5-1.2-29.6,16.7-50.2,38.1-61.2,63.5-9.6,22.2-11.3,46.8-4.9,71,3.3,12.5,8.6,24.5,15.7,35.4-9-7.8-16.8-17-23.1-27.4-20.3-33.9-20.9-74.1-1.6-110.4,4.3-8,9.6-17,15.3-26.5,19.2-32.4,40.4-68.3,42-99.6,8.7,4.8,20,12.1,30.6,21.9,27.3,25.3,37.4,55.3,30,89-.8,3.5.4,7.1,3,9.5s6.3,3.2,9.7,2.2c1.2-.4,25.9-8.4,44.6-30.1,9.1,17.4,15.5,37.1,18.4,56.9.8,5.5,5.8,9.2,11.3,8.5s9.2-5.8,8.5-11.3c-4-27.7-14.3-55.3-29-77.8-1.9-2.9-5.2-4.6-8.6-4.5-3.5,0-6.6,2-8.4,5-7.4,12.8-18.4,21.5-27.4,27,1.8-33.4-11.5-64-39.1-89.3-24.1-22.1-50.5-32.4-51.6-32.8-3.5-1.3-7.5-.6-10.2,1.9-2.8,2.5-3.9,6.4-3,10,7.3,27.1-17.9,69.5-38,103.5-5.8,9.7-11.2,18.9-15.7,27.3-22.7,42.6-22,90,2.1,130.1,5.9,9.8,13,18.7,21,26.6-9.1-4.2-17.9-9.2-26.1-14.8-55-37.8-81.2-102.6-74.9-183.8,15.6,14.9,39.3,34.9,56,37.8,3.1.5,6.3-.4,8.6-2.6,2.3-2.2,3.4-5.3,3-8.4-.2-1.3-14.7-131.9,49.7-215.2,3.4-4.4,2.6-10.6-1.8-14s-10.6-2.6-14,1.8c-36.4,47.1-49.1,107.1-53.3,149.2-2.7,26.5-2.4,49.2-1.7,63.7-15.1-9.5-35-28.3-46.9-40.9-2.6-2.8-6.6-3.8-10.3-2.7-3.7,1.2-6.3,4.3-6.9,8.1-13.7,98.6,15.1,178,81.1,223.4,34.3,23.6,76.6,36.6,122.3,37.5h12.8c.9,0,1.3,0,2-.2,39-1.5,78-12.1,111.1-30.3,33-18.1,60-43.7,78.2-73.9,20.3-33.6,29.7-72.2,28.1-114.7h-.2Zm-259.5,32.5c-1.3,9.7-1,19.1,1.1,27.8,3.6,15.4,12.5,28,25,35.7,11,6.7,24.1,9.1,37,6.6,10.1-2,19.6-6.8,28-14.1,9,12.5,11.8,26.8,8.4,42.6-5.5,25.2-27.7,51.4-53.5,64.6-3,1.2-6,2.2-9.2,3.3h-.7c-30.5-2.4-61.1-31.8-70.8-69-4.8-18.4-9.7-61.4,34.8-97.5h-.1Z"/><path class="cls-1" d="m311.2,374.7v.2c-.2,5.5,4.1,10.1,9.6,10.3h.4c5.3,0,9.8-4.2,10-9.6v-.3c.2-5.5-4.2-10.1-9.7-10.3-5.5-.2-10.1,4.2-10.3,9.7h0Z"/><path class="cls-1" d="m160.4,56.8c0,5.5-4.5,10-10,10s-10-4.5-10-10,4.5-10,10-10,10,4.5,10,10Z"/></svg>