<?xml version="1.0" encoding="UTF-8"?><svg id="Layer_1" xmlns="http://www.w3.org/2000/svg" viewBox="0 0 572.3 648.7"><defs><style>.cls-1{fill:#d9ba6c;stroke-width:0px;}</style></defs><path class="cls-1" d="m185,266.8c-5.2,0-9.4,4.2-9.4,9.4v20.8c0,5.2,4.2,9.4,9.4,9.4s9.4-4.2,9.4-9.4v-20.8c0-5.2-4.2-9.4-9.4-9.4Z"/><path class="cls-1" d="m387.2,306.4c5.2,0,9.4-4.2,9.4-9.4v-20.8c0-5.2-4.2-9.4-9.4-9.4s-9.4,4.2-9.4,9.4v20.8c0,5.2,4.2,9.4,9.4,9.4Z"/><path class="cls-1" d="m317.2,354.2c-3.9-3.4-9.8-3-13.2.9-4.4,5-10.9,7.8-17.9,7.8s-13.5-2.9-17.9-7.8c-3.4-3.9-9.3-4.3-13.2-.9-3.9,3.4-4.3,9.3-.9,13.2,7.9,9.1,19.6,14.2,32,14.2s24.1-5.2,32-14.2c3.4-3.9,3-9.8-.9-13.2h0Z"/><path class="cls-1" d="m566.8,194.1c13.2-31.4-1.2-65.9-6-75.9,2.7-23.9-7.1-44.9-13.2-55.3,3.1-4.1,5.1-9,5.8-14.2,1.2-8.2-.9-16.4-5.9-23.1-10.2-13.5-30-16.4-43.6-6.2-20.4,15.3-26.6,34.7-31.2,48.9-3.8,11.9-6.2,19.1-15.8,25.6-27.1-20.2-59.2-35.9-86.9-49.4-23.4-11.4-45.5-22.2-53.6-31.1-7.7-8.5-18.8-13.4-30.4-13.4s-22.7,4.9-30.4,13.4c-8.1,8.9-30.2,19.7-53.6,31.1-27.7,13.5-59.8,29.2-86.9,49.4-9.6-6.5-11.9-13.8-15.7-25.6-4.6-14.2-10.9-33.7-31.2-48.9-13.5-10.2-33.4-7.3-43.6,6.2-8.2,10.9-8.2,26.4,0,37.2-6.1,10.4-15.9,31.4-13.2,55.3-4.8,10-19.2,44.5-6,75.9,8.2,19.5,25.2,33.7,50.6,42.3v.5c-29,4.5-51.2,29.6-51.2,59.9s26.9,60.3,60.1,60.6c-2.2,15-4.7,41.7-.3,70.8,8.3,55.6,37.7,94.7,85.2,113.7-9.8,23.5-17.2,53-17.2,88.3s4.2,9.4,9.4,9.4h288.3c5.2,0,9.4-4.2,9.4-9.4,0-35.3-7.5-64.8-17.2-88.3,47.5-19,76.9-58.1,85.2-113.7,4.4-29.1,1.9-55.8-.3-70.8,33.2-.2,60.1-27.3,60.1-60.6s-22.2-55.4-51.2-59.9v-.5c25.4-8.6,42.4-22.7,50.6-42.3h0Zm-119.8,215.9c-24.3,26.5-54.1,46.2-82.3,63.4h0c-18.8,11.7-39.8,21.3-54.4,38.4-6,7-14.4,11-23.1,11h-2c-8.7,0-17.1-4-23.1-11-14.4-16.8-36-27.1-54.6-38.5-28-17.1-57.8-36.8-82.1-63.2-.2-.3-.5-.5-.8-.8-30.9-34-47.9-76.8-49.7-122.7v-.2c-.6-14.6-.2-29.3-.2-43.9h26.6c-2.2,16.4-3.4,34.6-3.4,54.2s4.3,37.1,12.7,51c12,19.8,33.2,31.6,56.8,31.6s38.1-10.3,54.1-23c15.2-12,29.5-23.4,64.5-23.4s49.3,11.4,64.5,23.4c16,12.7,33,23,54.1,23s44.8-11.8,56.8-31.6c8.4-13.9,12.7-31.1,12.7-51s-1.1-37.8-3.4-54.2h26.6v35.3c0,48.6-16.9,95.2-49.9,131.5-.2.2-.4.4-.5.6h0ZM58.7,159.1c-13.9-9.8-25.6-23.4-28.4-40.6-2.4-15.3,2.4-29.9,7-39.5h0c.2.5.4,1.1.6,1.7,6.2,17.4,11.8,35.1,24.3,49.2.4.4,9.5,9.2,9.5,9.2-.2.3-.4.6-.6.9-4,6.5-7.3,13.5-9.8,20.7v.2c-.9-.6-1.8-1.2-2.7-1.8h.1Zm180.9,96.4c13.1,15.8,23.8,30.1,46.5,30.1s30.6-7.7,39.6-20.7c7.9-11.3,15.6-22.3,30.8-22.3h95.5c2.3,16.2,3.5,34.4,3.5,54.2s-3.4,30.4-10,41.3c-8.6,14.2-23.8,22.6-40.8,22.6s-29.8-9-42.5-19c-16.2-12.9-34.7-27.4-76.2-27.4s-59.9,14.6-76.2,27.4c-12.6,10-25.7,19-42.5,19s-32.2-8.5-40.8-22.6c-6.6-10.9-10-24.8-10-41.3s1.2-38,3.5-54.2h95.5c10.8,0,17.9,5.6,23.9,12.9h.2Zm266.3-121.4c9.6-9.5,16.8-21.2,21.6-33.7,2.7-7,4.7-14.4,7.4-21.4h0c4.6,9.6,9.5,24.2,7,39.8-2.3,14.2-10.9,26.2-21.8,35.4-.7.6-9.3,6.7-9.2,6.8v-.2c-2-5.6-4.4-11.1-7.3-16.3-.2-.4-3.2-5.3-3.1-5.4.6-.5,4.3-3.8,5.5-5h-.1Zm43.7,52.8c-5.4,12.9-16.6,22.8-33.3,29.6,0-10.2.5-20.5-.3-30.7,0-1.9-.3-3.7-.6-5.6,6-3.6,11.7-7.6,17.1-12.1h0c7.7-6.5,13.9-13.7,18.6-21.4,2.8,11.8,4.1,26.6-1.6,40.1h0Zm-59-112.7c4.2-13.1,9-28,24.6-39.7,5.4-4.1,13.3-2.9,17.3,2.5,4.1,5.4,2.9,13.3-2.5,17.3-8.1,6.1-11.4,13.8-14.6,23.3-5.8,17.4-11.8,33.9-26.1,46.2h0c-5-6-10.5-11.5-16.3-16.7-.4-.3-.7-.7-1.1-1,11.2-9.3,14.7-20,18.6-32h.1Zm-280.2-12.6c27.2-13.3,48.7-23.8,59.2-35.3,4.2-4.6,10.3-7.3,16.6-7.3s12.4,2.6,16.6,7.3c10.5,11.5,32,22,59.2,35.3,28.5,13.9,62,30.3,88.5,51.1h0c5.6,4.4,10.7,8.9,15.3,13.4H195.5c-5.2,0-9.4,4.2-9.4,9.4s4.2,9.4,9.4,9.4h286.3c7.1,10.3,11.9,21.2,14.1,32.2v.4c.5,2.1.8,4.2,1,6.3h-74.2c-5.2,0-9.4,4.2-9.4,9.4s4.2,9.4,9.4,9.4h74.7v21.4h-141c-15.8,0-30.6,7.7-39.6,20.7-7.9,11.3-15.5,22.3-30.8,22.3s-23.1-11.2-30.9-22.3c-9-13-23.8-20.7-39.6-20.7H74.7v-21.4h310.6c5.2,0,9.4-4.2,9.4-9.4s-4.2-9.4-9.4-9.4H75.3c.3-2.1.6-4.3,1-6.4v-.3c2.3-11.1,7.1-21.9,14.2-32.2h67.6c5.2,0,9.4-4.2,9.4-9.4s-4.2-9.4-9.4-9.4h-51.6c4.6-4.5,9.7-9,15.3-13.4h0c26.6-20.9,60-37.2,88.6-51.1h0ZM39.7,36.9c4-5.4,12-6.5,17.3-2.5,15.6,11.7,20.4,26.6,24.6,39.7,3.9,12,7.3,22.7,18.6,32-1.9,1.7-17.5,17.5-17.3,17.7h0c-12.7-11-19.6-26.3-24.7-42-3.3-10.4-6.9-20.7-15.9-27.5-5.4-4.1-6.5-11.9-2.5-17.3h0Zm-17,150c-5.7-13.4-4.4-28.3-1.6-40.2,4.6,7.7,10.8,14.8,18.6,21.3h0c5.4,4.4,11.1,8.5,17.1,12.1-.6,4.4-1,8.8-.8,13.2v23c-16.7-6.8-27.9-16.7-33.3-29.5h0Zm.8,109.9c0-19.9,13.9-36.5,32.5-40.8,0,10.1-.3,20.2,0,30.3.6,18.4,3.2,35.9,7.8,52.4-22.4-.8-40.4-19.2-40.4-41.8h0Zm59.7,129.1c-2.5-16.2-2.6-31.8-1.9-44.7,1.5,2.7,3,5.3,4.6,7.9,14.1,23.1,31.9,42,51.3,58.2,16.5,13.8,33.6,25.3,49.6,35.4-7.4,8.1-18.7,22.2-29.1,42.2-41.9-16.4-67-49.6-74.5-98.9h0Zm108.5,80.5v114.4h-40.2c2.3-54.9,24.5-93.6,40.2-114.4h0Zm18.7-9.2c7.1,4.3,14.2,8.6,21,13.3,5.8,4,11.8,8.2,16.4,13.6,9.5,11.1,23.1,17.5,37.3,17.5h2c14.2,0,27.8-6.4,37.3-17.5,9.7-11.4,36.9-26.6,37.4-26.9v123.7h-151.4v-123.7h0Zm170.1,123.7v-114.4c15.7,20.8,37.8,59.6,40.2,114.4h-40.2Zm108.5-194.9c-7.5,49.3-32.6,82.6-74.6,98.9-10.4-19.9-21.7-34-29-42.2,16.1-10.1,33.3-21.6,49.8-35.5,19.8-16.7,37.6-35.8,51.1-58,1.6-2.6,3.1-5.3,4.6-7.9.7,12.9.6,28.4-1.9,44.7Zm59.7-129.1c0,22.6-18,41.1-40.4,41.8,4.6-16.5,7.2-33.9,7.8-52.4.3-10.1,0-20.2,0-30.3,18.6,4.3,32.5,20.9,32.5,40.8h0Z"/><path class="cls-1" d="m403.1,338.8h-27.4c-5.2,0-9.4-4.2-9.4-9.4s4.2-9.4,9.4-9.4h27.4c5.2,0,9.4,4.2,9.4,9.4s-4.2,9.4-9.4,9.4Z"/><path class="cls-1" d="m196.5,338.8h-27.3c-5.2,0-9.4-4.2-9.4-9.4s4.2-9.4,9.4-9.4h27.3c5.2,0,9.4,4.2,9.4,9.4s-4.2,9.4-9.4,9.4Z"/></svg>