<?xml version="1.0" encoding="UTF-8"?><svg id="Layer_1" xmlns="http://www.w3.org/2000/svg" viewBox="0 0 618.5 639.5"><defs><style>.cls-1{fill:#d9ba6c;stroke-width:0px;}</style></defs><path class="cls-1" d="m264.3,107.2h-68.5c-5.2,0-9.4,4.2-9.4,9.4v331.4c0,5.2,4.2,9.4,9.4,9.4h68.5c5.2,0,9.4-4.2,9.4-9.4V116.5c0-5.2-4.2-9.4-9.4-9.4h0Zm-9.4,331.5h-49.7V125.9h49.7v312.8Z"/><path class="cls-1" d="m354.1,457.4h68.5c5.2,0,9.4-4.2,9.4-9.4V116.5c0-5.2-4.2-9.4-9.4-9.4h-68.5c-5.2,0-9.4,4.2-9.4,9.4v331.5c0,5.2,4.2,9.4,9.4,9.4Zm9.4-331.5h49.7v312.8h-49.7V125.9h0Z"/><path class="cls-1" d="m618.5,614.6v-37.5c0-13.7-11.2-24.9-24.9-24.9h-20.8c.5-2,.8-4,.8-6.2v-37.5c0-13.7-11.2-24.9-24.9-24.9h-19.6V24.1c0-13.2-10.8-24-24-24H232.4c-5.2,0-9.4,4.2-9.4,9.4s4.2,9.4,9.4,9.4h272.7c2.9,0,5.3,2.4,5.3,5.3v459.4h-33.4V90.8c0-15.7-12.8-28.5-28.5-28.5H170.1c-15.7,0-28.5,12.8-28.5,28.5v392.8h-33.4V24.1c0-2.9,2.4-5.3,5.3-5.3h81.5c5.2,0,9.4-4.2,9.4-9.4s-4.2-9.4-9.4-9.4h-81.6c-13.2,0-24,10.8-24,24v459.6h-19.6c-13.7,0-24.9,11.2-24.9,24.9v37.5c0,2.1.3,4.2.8,6.2h-20.8c-13.7,0-24.9,11.2-24.9,24.9v37.5c0,13.7,11.2,24.9,24.9,24.9h568.7c13.7,0,24.9-11.2,24.9-24.9h0ZM458.2,90.8v392.8h-139.6V81h129.8c5.4,0,9.8,4.4,9.8,9.8Zm-297.9,0c0-5.4,4.4-9.8,9.8-9.8h129.8v402.6h-139.6V90.8h0Zm439.4,523.8c0,3.4-2.8,6.2-6.2,6.2H24.9c-3.4,0-6.2-2.8-6.2-6.2v-37.5c0-3.4,2.8-6.2,6.2-6.2h409.8c5.2,0,9.4-4.2,9.4-9.4s-4.2-9.4-9.4-9.4H69.8c-3.4,0-6.2-2.8-6.2-6.2v-37.5c0-3.4,2.8-6.2,6.2-6.2h478.9c3.4,0,6.2,2.8,6.2,6.2v37.5c0,3.4-2.8,6.2-6.2,6.2h-76.5c-5.2,0-9.4,4.2-9.4,9.4s4.2,9.4,9.4,9.4h121.4c3.4,0,6.2,2.8,6.2,6.2v37.5h-.1Z"/></svg>