<?xml version="1.0" encoding="UTF-8"?><svg id="Layer_1" xmlns="http://www.w3.org/2000/svg" viewBox="0 0 639.3 589.6"><defs><style>.cls-1{fill:#d9ba6c;stroke-width:0px;}</style></defs><path class="cls-1" d="m21.1,135.1c7.3,7.3,17,11.3,27.3,11.3s13.9-1.9,19.8-5.5l68.2,68.2c-6.6,7.8-12.8,15.5-18.5,23.1-9.7,12.9-8.4,31.3,3,42.7l18.2,18.2c11.4,11.4,29.8,12.6,42.7,3,2-1.5,3.9-3,5.9-4.5l28.3,28.3-117.4,117.4c-11.6,11.6-20,26.2-24.2,42.1,0,0-24.1,90.8-24.1,91-3,11.1,7.6,21.7,18.7,18.7l91-24.1c15.9-4.2,30.5-12.6,42.1-24.2l36.3-36.3c3.7-3.7,3.7-9.6,0-13.3-3.7-3.7-9.6-3.7-13.3,0l-36.3,36.3c-9.3,9.3-20.9,16-33.6,19.4l-85.2,22.6,22.6-85.2c3.4-12.7,10.1-24.3,19.4-33.6l247.7-247.7c9.6,11.5,19.8,22.6,30.3,33.4L123.3,503.1c-8.3,8.3,4.5,22,13.3,13.3L403,249.5c10.8,10.5,21.8,20.6,33.4,30.3l-184.9,184.9c-3.7,3.7-3.7,9.6,0,13.3s9.6,3.7,13.3,0l54.6-54.6,117.4,117.4c11.6,11.6,26.2,20,42.1,24.2,0,0,90.9,24.1,91,24.1,11.1,3,21.7-7.6,18.7-18.7l-24.1-91c-4.2-15.9-12.6-30.5-24.2-42.1l-117.5-117.4,28.3-28.3c2,1.5,3.9,3,5.9,4.5,12.9,9.6,31.3,8.3,42.7-3l18.2-18.2c11.4-11.4,12.7-29.7,3-42.7-5.7-7.6-11.8-15.3-18.5-23.1l68.2-68.2c5.9,3.6,12.7,5.5,19.8,5.5,12.6,0,22.2-6.3,30.8-14.8,24.1-24.1,24.1-64.3,0-88.4l-25.1-25.1c-24.1-24.1-64.3-24.1-88.4,0s-20,32.7-9.3,50.6l-68.2,68.2c-7.8-6.6-15.5-12.8-23.1-18.5-12.9-9.6-31.3-8.3-42.7,3l-18.2,18.2c-11.4,11.4-12.7,29.7-3,42.7,1.5,2,3,3.9,4.5,5.9l-28.3,28.3-28.3-28.3c11.4-14.7,16.3-33.8,1.5-48.6l-18.2-18.2c-11.4-11.4-29.8-12.6-42.7-3-7.6,5.7-15.3,11.8-23.1,18.5l-68.2-68.2c3.6-5.9,5.5-12.7,5.5-19.8,0-10.3-4-20-11.3-27.3-25.1-25.1-65.4-30.1-91.9-3.5l-25.1,25.1c-26.4,26.4-21.4,67,3.5,91.9Zm505.9,315.5c9.3,9.3,16,20.9,19.4,33.6l22.6,85.2-85.2-22.6c-12.7-3.4-24.3-10.1-33.6-19.4l-117.4-117.4,31.8-31.8s137.7,137.7,138,138c8.5,8.5,21.8-4.7,13.3-13.3l-138-138,31.8-31.8,117.5,117.4h-.2Zm-9.6-415.8c18.1-18.1,46-22.9,65.4-3.5l25.1,25.1c19.4,19.4,14.6,47.3-3.5,65.4-7.6,7.6-20.4,7.6-28,0l-59-59c-7.7-7.7-7.7-20.3,0-28Zm-6.6,47.9l45.7,45.7-66.5,66.5c.5-.5-20-21.1-22.3-23.4-7.6-7.6-15.4-15.1-23.4-22.3,0,0,66.5-66.5,66.5-66.5Zm-151.3,70.1l18.2-18.2c4.8-4.8,12.7-5.4,18.2-1.3,20.8,15.6,40.2,33.1,58.6,51.5s35.9,37.8,51.5,58.6c4.1,5.5,3.6,13.3-1.3,18.2l-18.2,18.2c-4.8,4.8-12.7,5.4-18.2,1.3-20.8-15.6-40.2-33.1-58.6-51.5s-35.9-37.8-51.5-58.6c-4.1-5.5-3.6-13.3,1.3-18.2h0Zm-156.7,126.5c11.4-9.6,22.3-19.6,33-29.9l25.3,25.3-31.8,31.8-26.9-26.9c.1-.1.3-.2.4-.3Zm76.5-76.6l26.9,26.9-31.8,31.8-25.3-25.3c.4.4,30.7-32.9,30.3-33.4h-.1Zm-36.3-69.5c5.5-4.1,13.3-3.6,18.2,1.3l18.2,18.2c4.8,4.8,5.4,12.7,1.3,18.2-15.6,20.8-33.1,40.2-51.5,58.6s-37.7,35.9-58.6,51.4c-5.5,4.1-13.3,3.6-18.2-1.3l-18.2-18.2c-4.8-4.8-5.4-12.7-1.3-18.2,15.6-20.8,33.1-40.2,51.5-58.6,18.4-18.4,37.7-35.9,58.6-51.5h0Zm-71.8,38.1h0c-7.6,7.6-15,15.4-22.3,23.3l-66.5-66.5,45.7-45.7,66.5,66.5c-1.8,1.7-17.5,16.4-23.4,22.3h0ZM30.8,56.5l25.1-25.1c16.9-16.9,45-16.8,61.9,0,8.7,8.8,13.6,21.5,3.5,31.5l-59,59c-10.1,10.2-22.8,5.2-31.5-3.5-16.9-16.9-16.9-45,0-61.9Z"/></svg>