<?xml version="1.0" encoding="UTF-8"?><svg id="Layer_1" xmlns="http://www.w3.org/2000/svg" viewBox="0 0 480.1 512.2"><defs><style>.cls-1{fill:#d9ba6c;stroke-width:0px;}</style></defs><g id="_20-tree"><path class="cls-1" d="m256,400.2c-21.2,0-40.9-10.6-52.8-28-.6-.9-1.8-1.3-2.8-.8-31.9,13.2-68.6-1.3-82.8-33-14.5-32.3,0-70.1,32.2-84.6,8.3-3.7,17.2-5.6,26.3-5.6h.6c1,0,1.9-.7,2.2-1.6,7.5-22.9,28.9-38.5,53.1-38.4,17.8,0,34.5,8.6,45.1,22.9s1.9,1.2,2.9.7c4.6-2.3,9.3-4,14.3-5.3s1.8-1.2,1.8-2.3h0c0-35.3,28.7-64,64-64s15.2,1.4,22.3,4,1.2.2,1.7,0c26.1-10.9,56.2,1.1,67.6,27.2,2.9,6.6,4.4,13.7,4.4,20.8s-1.5,14.1-4.3,20.6-.1,2.2.8,2.8c28.3,19.6,36.1,58.3,17.2,87.4-19.2,29.6-58.8,38-88.4,18.8-2.3-1.5-4.6-3.2-6.7-5s-2.6-.7-3.4.4c-13.4,19.4-35.5,31-59.1,31h-.6c-11.5,19.7-32.5,31.9-55.4,32h-.2Zm-50.7-48.3c.8,0,1.6.1,2.3.3,2.2.7,4,2.2,5,4.3,11.1,24,39.6,34.4,63.6,23.3,10.2-4.8,18.5-13,23.2-23.2,1.4-3,4.6-4.8,7.9-4.6,1.6.1,3.1.2,4.7.2,22.5,0,42.7-13.4,51.5-34.1,1.1-2.6,3.6-4.5,6.4-4.8,2.9-.4,5.7.9,7.4,3.2,15.6,21.4,45.6,26,67,10.4,12.4-9,19.7-23.4,19.7-38.8s-10.8-35.4-27.5-43.4c-4-1.9-5.7-6.7-3.8-10.7.2-.4.4-.8.7-1.2,11.5-16.3,7.6-38.7-8.7-50.2-11.1-7.8-25.6-8.7-37.6-2.4-2.2,1.2-4.8,1.3-7.1.2-6.3-2.9-13.1-4.4-20-4.4-26.5,0-48,21.5-48,48s.2,4.9.6,7.2c.7,4.4-2.3,8.4-6.7,9.1h-.3c-9.2,1.1-18,4.4-25.6,9.7-3.6,2.5-8.6,1.7-11.1-2-.3-.4-.5-.8-.7-1.2-9.4-20-33.1-28.6-53.1-19.2-12.1,5.7-20.5,17-22.5,30.2-.7,4.4-4.7,7.4-9.1,6.7,0,0-30.4-5.6-43.3,13.4-20.9,30.7-13.3,74.7,27.8,81.4,2.7.4,5.4.6,8.1.6,8.9,0,17.6-2.5,25.1-7.2,1.3-.8,2.7-1.2,4.2-1.1v.3Z"/><path class="cls-1" d="m167,239.6h-.5c-4.7-.7-7.8-5.4-6.4-10v-.3c1.2-3.8,5-6.1,8.9-5.5s0,0,.1,0c3.9.6,6.9,3.8,6.9,7.8v.3c0,4.8-4.2,8.4-9,7.8h0Z"/><path class="cls-1" d="m147.4,223.7c-2.5,4.2-8.1,5.1-11.9,2.1-14.8-12-23.6-30.2-23.5-49.6v-.7c-26.1-4.4-43.8-29.1-39.4-55.3,3.4-20.2,19.2-36,39.4-39.4v-.7c0-26.5,21.5-48,48-48s5.6.2,8.3.7,5.6-.5,7.4-2.6c17.1-19.9,44.8-27.3,69.6-18.5s5.1.5,7.3-.9c27.8-18.6,65.6-12.6,86.2,14.3,8.6,11.2,13.2,24.9,13.2,38.9v.6c35.1,4.4,59.9,36.4,55.5,71.5,0,.4-.1.8-.2,1.2-.7,4.8-5.5,7.9-10.2,6.5h0c-3.8-1.1-6.2-4.9-5.6-8.8,3.5-23.3-10.6-46.2-33.8-53.1-4.5-1.3-9.1-2-13.7-2s-4.7-1-6.4-2.8c-1.6-1.7-2.4-4-2.2-6.4.4-2.3.6-4.6.6-6.9,0-26.5-21.4-48-47.9-48s-23.5,4.5-32.4,12.5c-2.5,2.3-6.2,2.7-9.2,1.1-22.6-12.1-50.7-4.2-63.8,17.8-2.1,3.4-6.4,4.8-10.1,3.2-4-1.8-8.4-2.7-12.8-2.7-17.7,0-32,14.3-32,32s.2,4.3.7,6.5c.5,2.4-.1,4.9-1.7,6.8-1.6,1.9-3.9,2.9-6.4,2.9h-1c-17.7,0-32,14.3-32,32s14.1,31.8,31.6,32h1.5c4.4,0,8,3.6,8,8v1.1c-.3,2.3-.5,4.6-.5,6.9,0,14.5,6.5,28.1,17.5,37.1s4,6.9,1.9,10.4h0v.3Z"/><path class="cls-1" d="m112,384.2c-15.8,0-30.4-7.9-39.3-20.6s-4.2-3.5-7-3.4-1.1,0-1.7,0c-20.3,0-37.2-15.1-39.7-34.9s-1.5-4.2-3.3-5.4c-20.6-14-27.2-41.7-14.6-63.6,3.6-6.3,8.6-11.7,14.6-15.7s3.1-3.4,3.3-5.6c2.7-24.1,23.1-42.7,47.7-42.7s8.9.7,13.2,1.9,6.9,6.8,4.7,11.2h0c-1.7,3.5-5.6,5.2-9.2,4.1s-5.7-1.3-8.6-1.3c-17.7,0-32,14.3-32,32s0,.6,0,.9c0,.6,0,1.1.2,1.6.3,3.4-1.6,6.6-4.8,8-16.3,6.9-23.8,25.7-16.9,42,3.2,7.6,9.3,13.7,16.9,16.9,3.2,1.4,5.2,4.7,4.8,8.2l-.2,1.3c0,.4,0,.7,0,1.1,0,13.3,10.7,24,24,24s5.4-.5,8-1.5c4.1-1.5,8.6.6,10.2,4.7,6.1,16.5,24.5,24.9,41,18.8,3.7-1.4,7.1-3.4,10-6s7.1-2.8,10.1-.5h.1c4,3.1,4.2,9.1.4,12.4-8.7,7.7-20,12.1-31.9,12.1Z"/><path class="cls-1" d="m288,512.2h-64c-4.4,0-8-3.6-8-8v-16c0-4.4,3.6-8,8-8h0c4.4,0,8,3.6,8,8h0c0,4.4,3.6,8,8,8h24.4c5.7,0,9.5-5.7,7.4-11l-7.1-17.8c0-.2-.2-.4-.3-.6l-12.9-25.9c-.8-1.7-2.3-3-4-3.8l-40.9-17.5c-8.8-3.8-14.5-12.4-14.6-22v-29.5c0-4.4,3.6-8,8-8h0c4.4,0,8,3.6,8,8v29.5c0,3.2,1.9,6.1,4.8,7.4l46.3,19.8c1.7.7,3.2,2.1,4,3.8l15.9,31.7c0,.2.2.4.3.6l16.1,40.3c1.6,4.1-.4,8.8-4.5,10.4-.9.4-1.9.6-3,.6h.1Z"/><path class="cls-1" d="m225.5,464.2h-3.1c-3.6,0-6.5-2.9-6.5-6.5h0c0-2.6-1.5-4.9-3.9-5.9l-18.1-7.8c-20.6-8.8-34-29.1-33.9-51.5v-17.9c0-3.6,2.9-6.5,6.5-6.5h3.1c3.6,0,6.5,2.9,6.5,6.5v17.9c0,16,9.5,30.5,24.2,36.8l26.9,11.5c2.9,1.3,4.8,4.1,4.8,7.3v9.5c0,3.6-2.9,6.5-6.5,6.5h0Z"/><path class="cls-1" d="m272,425.8h0c-1.6-4.1.3-8.8,4.4-10.4l6.5-2.6c3-1.2,5-4.1,5-7.4v-21.2c0-4.4,3.6-8,8-8h0c4.4,0,8,3.6,8,8v21.2c0,9.8-6,18.7-15.1,22.3l-6.5,2.6c-4.1,1.6-8.8-.4-10.4-4.5h.1Z"/><path class="cls-1" d="m274.8,469.1l-5.7-9.9c-.6-1.1-.3-2.5.9-3.2l29.8-17c12.5-7.1,20.2-20.4,20.2-34.7v-41.8c0-1.3,1-2.3,2.3-2.3h11.4c1.3,0,2.3,1,2.3,2.3v41.8c0,20.1-10.8,38.7-28.2,48.7l-29.8,17c-1.1.6-2.5.3-3.2-.9h0Z"/><path class="cls-1" d="m216,416.2h0c-1.4-4.2.9-8.7,5.1-10.1l5.5-1.8c3.3-1.1,5.5-4.1,5.5-7.6v-4.5c0-4.4,3.6-8,8-8h0c4.4,0,8,3.6,8,8v16c0,3.4-2.2,6.5-5.5,7.6l-16.4,5.5c-4.2,1.4-8.7-.9-10.1-5.1h-.1Z"/><path class="cls-1" d="m175,418.5c-1.2,2.8-4.4,4.1-7.2,2.9l-41.3-17.7c-8.8-3.8-14.5-12.5-14.5-22h0c0-3,2.4-5.5,5.5-5.5h5.1c3,0,5.5,2.4,5.5,5.5h0c0,3.2,1.9,6.1,4.8,7.4l41.3,17.7c2.8,1.2,4.1,4.4,2.9,7.2l-2,4.7v-.2Z"/><path class="cls-1" d="m330.5,405.3l-5.1-10.2c-.6-1.1-.1-2.5,1-3.1l21.1-10.5c2.7-1.4,4.4-4.1,4.4-7.2v-35.8c0-1.3,1-2.3,2.3-2.3h11.4c1.3,0,2.3,1,2.3,2.3v35.8c0,9.1-5.1,17.4-13.3,21.5l-21.1,10.6c-1.1.6-2.5.1-3.1-1h.1Z"/></g></svg>